<svg width="24" height="24" viewBox="0 0 24 24" fill="none" xmlns="http://www.w3.org/2000/svg">
<path d="M13.8418 11.3819L13.8418 11.3819C13.1887 12.0348 12.3306 12.3611 11.4746 12.3611C10.6188 12.3611 9.76042 12.0349 9.10756 11.3819C9.10754 11.3819 9.10752 11.3819 9.1075 11.3818M13.8418 11.3819L9.46109 7.00117C8.35074 8.11152 8.35074 9.91809 9.46109 11.0283L9.1075 11.3818M13.8418 11.3819C15.1474 10.0764 15.1474 7.95322 13.8418 6.64762L13.8418 6.64758C13.2102 6.01613 12.368 5.66703 11.4746 5.66703C10.5814 5.66703 9.73893 6.01595 9.10746 6.6477M13.8418 11.3819L9.10746 6.6477M9.1075 11.3818C7.80194 10.0763 7.80196 7.95329 9.10746 6.6477M9.1075 11.3818L9.10746 6.6477M11.4758 20.8049C11.3058 20.5937 11.087 20.3176 10.8335 19.9885C10.2125 19.1825 9.3855 18.0611 8.55942 16.7981C7.73233 15.5336 6.91225 14.1363 6.30052 12.7775C5.68451 11.4091 5.30078 10.1251 5.30078 9.07422C5.30078 5.67044 8.07083 2.90039 11.4746 2.90039C14.8785 2.90039 17.6484 5.67043 17.6484 9.07422C17.6484 10.0656 17.2674 11.3195 16.6512 12.6805C16.0401 14.0301 15.2209 15.4356 14.3947 16.7153C13.5696 17.9934 12.7436 19.1367 12.1234 19.961C11.8672 20.3015 11.6464 20.5872 11.4758 20.8049Z" fill="#2873FF" stroke="#2873FF"/>
</svg>
