<svg width="20" height="20" viewBox="0 0 20 20" fill="none" xmlns="http://www.w3.org/2000/svg">
<path fill-rule="evenodd" clip-rule="evenodd" d="M6.00096 12.6855C6.42878 12.6855 6.84699 12.8267 7.2027 13.0912C7.55842 13.3557 7.83567 13.7316 7.99938 14.1714C8.1631 14.6112 8.20594 15.0952 8.12248 15.5621C8.03901 16.029 7.833 16.4578 7.53049 16.7944C7.22798 17.1311 6.84255 17.3603 6.42296 17.4532C6.00336 17.546 5.56844 17.4984 5.17319 17.3162C4.77794 17.134 4.44012 16.8255 4.20243 16.4297C3.96475 16.0339 3.83789 15.5685 3.83789 15.0925C3.83789 14.4541 4.06579 13.8419 4.47144 13.3905C4.8771 12.9391 5.42728 12.6855 6.00096 12.6855ZM6.00096 13.303C5.68356 13.303 5.37328 13.4078 5.10937 13.604C4.84545 13.8002 4.63976 14.0791 4.51829 14.4054C4.39682 14.7317 4.36504 15.0908 4.42697 15.4372C4.48889 15.7836 4.64174 16.1018 4.86618 16.3515C5.09062 16.6012 5.37657 16.7713 5.68788 16.8402C5.99918 16.9091 6.32186 16.8738 6.61511 16.7386C6.90835 16.6035 7.15899 16.3746 7.33534 16.0809C7.51168 15.7872 7.6058 15.442 7.6058 15.0888C7.6058 14.6152 7.43672 14.161 7.13575 13.8261C6.83479 13.4912 6.42659 13.303 6.00096 13.303Z" fill="#000044"/>
<path fill-rule="evenodd" clip-rule="evenodd" d="M5.99937 13.3047C6.31677 13.3047 6.62705 13.4094 6.89096 13.6056C7.15488 13.8019 7.36057 14.0808 7.48204 14.4071C7.60351 14.7334 7.63529 15.0924 7.57336 15.4388C7.51144 15.7852 7.35859 16.1034 7.13415 16.3532C6.90971 16.6029 6.62376 16.773 6.31245 16.8419C6.00115 16.9108 5.67847 16.8754 5.38522 16.7403C5.09198 16.6051 4.84134 16.3762 4.66499 16.0826C4.48865 15.7889 4.39453 15.4436 4.39453 15.0904C4.39453 14.6168 4.56361 14.1626 4.86458 13.8277C5.16554 13.4928 5.57374 13.3047 5.99937 13.3047ZM5.99937 13.9768C5.80191 13.9768 5.60889 14.0419 5.44472 14.164C5.28054 14.2861 5.15258 14.4596 5.07702 14.6626C5.00146 14.8655 4.98169 15.0889 5.02021 15.3044C5.05873 15.5199 5.15381 15.7178 5.29343 15.8732C5.43305 16.0286 5.61094 16.1344 5.8046 16.1772C5.99826 16.2201 6.19899 16.1981 6.38141 16.114C6.56384 16.0299 6.71976 15.8875 6.82946 15.7049C6.93916 15.5222 6.99771 15.3074 6.99771 15.0877C6.99771 14.793 6.89253 14.5105 6.7053 14.3022C6.51807 14.0938 6.26414 13.9768 5.99937 13.9768Z" fill="#A9C2C2"/>
<path d="M6.00131 16.3526C5.77667 16.3526 5.55708 16.2784 5.37031 16.1395C5.18354 16.0006 5.03799 15.8032 4.95206 15.5723C4.86613 15.3413 4.84369 15.0872 4.88758 14.8421C4.93146 14.5969 5.0397 14.3717 5.1986 14.1951C5.35751 14.0184 5.55993 13.8981 5.78027 13.8494C6.00061 13.8008 6.22897 13.8259 6.43647 13.9217C6.64396 14.0175 6.82126 14.1796 6.94594 14.3875C7.07062 14.5955 7.13709 14.8399 7.13692 15.0898C7.1367 15.4248 7.01696 15.746 6.80402 15.9828C6.59107 16.2196 6.30235 16.3526 6.00131 16.3526ZM6.00131 13.4541C5.71056 13.4541 5.42634 13.55 5.18459 13.7297C4.94284 13.9095 4.75442 14.165 4.64315 14.4639C4.53189 14.7628 4.50277 15.0917 4.5595 15.409C4.61622 15.7263 4.75623 16.0178 4.96182 16.2465C5.16741 16.4753 5.42935 16.6311 5.71451 16.6942C5.99968 16.7573 6.29526 16.7249 6.56388 16.6011C6.83249 16.4773 7.06209 16.2676 7.22362 15.9986C7.38515 15.7296 7.47137 15.4134 7.47137 15.0898C7.47148 14.8749 7.43353 14.6621 7.3597 14.4636C7.28588 14.265 7.17761 14.0846 7.04109 13.9326C6.90457 13.7806 6.74248 13.66 6.56407 13.5777C6.38566 13.4955 6.19443 13.4531 6.00131 13.4531" fill="#7E9191"/>
<path fill-rule="evenodd" clip-rule="evenodd" d="M5.80479 14.6935C5.83105 14.6771 5.85899 14.6644 5.88799 14.6555L5.94123 13.877H6.0602L6.11428 14.6555C6.14323 14.6646 6.17114 14.6773 6.19747 14.6935L6.73076 14.1852L6.77235 14.2315L6.81478 14.2787L6.35804 14.8712C6.37231 14.9006 6.38374 14.9317 6.39215 14.9638L7.09182 15.023V15.1554L6.39215 15.2156C6.38364 15.2476 6.37221 15.2787 6.35804 15.3082L6.81478 15.9006L6.77235 15.9478L6.73076 15.9941L6.19581 15.4896C6.16931 15.5054 6.14144 15.5181 6.11262 15.5276L6.05854 16.3061H5.9404L5.88716 15.5276C5.85827 15.5183 5.83038 15.5056 5.80396 15.4896L5.27068 15.9969L5.22908 15.9506L5.18665 15.9034L5.64423 15.3045C5.63006 15.275 5.61863 15.2439 5.61012 15.2119L4.91211 15.1554V15.0267L5.61178 14.9675C5.62019 14.9354 5.63162 14.9043 5.64589 14.8749L5.18915 14.2824L5.23158 14.2352L5.27318 14.1889L5.80479 14.6935Z" fill="#A9C2C2"/>
<path fill-rule="evenodd" clip-rule="evenodd" d="M15.338 15.6318C15.4344 15.6317 15.5285 15.5997 15.6086 15.54C15.6887 15.4803 15.751 15.3955 15.7878 15.2963C15.8246 15.1972 15.8341 15.0881 15.8152 14.983C15.7963 14.8778 15.7498 14.7812 15.6816 14.7054C15.6134 14.6297 15.5265 14.5781 15.4319 14.5572C15.3374 14.5364 15.2394 14.5472 15.1504 14.5883C15.0613 14.6293 14.9852 14.6989 14.9317 14.7881C14.8782 14.8773 14.8496 14.9821 14.8496 15.0894C14.8498 15.2333 14.9014 15.3713 14.9929 15.473C15.0845 15.5747 15.2086 15.6318 15.338 15.6318Z" fill="#A9C2C2"/>
<path fill-rule="evenodd" clip-rule="evenodd" d="M15.682 14.7059C15.7501 14.7818 15.7965 14.8784 15.8153 14.9837C15.8341 15.0889 15.8244 15.1979 15.7875 15.297C15.7506 15.3962 15.6881 15.4809 15.608 15.5404C15.5278 15.6 15.4335 15.6318 15.3371 15.6318C15.2407 15.6318 15.1465 15.6 15.0663 15.5404C14.9861 15.4809 14.9237 15.3962 14.8868 15.297C14.8498 15.1979 14.8402 15.0889 14.859 14.9837C14.8777 14.8784 14.9241 14.7818 14.9923 14.7059C15.0376 14.6555 15.0913 14.6155 15.1505 14.5882C15.2097 14.5609 15.2731 14.5469 15.3371 14.5469C15.4012 14.5469 15.4646 14.5609 15.5238 14.5882C15.5829 14.6155 15.6367 14.6555 15.682 14.7059Z" fill="#A9C2C2"/>
<path fill-rule="evenodd" clip-rule="evenodd" d="M15.8247 15.0894C15.8247 15.1967 15.7961 15.3015 15.7425 15.3908C15.6889 15.48 15.6128 15.5495 15.5237 15.5906C15.4346 15.6316 15.3366 15.6424 15.242 15.6214C15.1475 15.6005 15.0606 15.5488 14.9924 15.473C14.9242 15.3971 14.8778 15.3004 14.859 15.1952C14.8402 15.09 14.8498 14.9809 14.8867 14.8818C14.9236 14.7826 14.9861 14.6979 15.0663 14.6383C15.1465 14.5787 15.2407 14.5469 15.3371 14.5469C15.4664 14.5471 15.5902 14.6044 15.6816 14.706C15.773 14.8077 15.8244 14.9456 15.8247 15.0894Z" fill="#A9C2C2"/>
<path fill-rule="evenodd" clip-rule="evenodd" d="M15.6818 15.4731C15.6136 15.5489 15.5267 15.6005 15.4321 15.6215C15.3376 15.6424 15.2396 15.6316 15.1505 15.5905C15.0614 15.5494 14.9853 15.4799 14.9317 15.3907C14.8782 15.3015 14.8496 15.1966 14.8496 15.0894C14.8496 14.9821 14.8782 14.8772 14.9317 14.788C14.9853 14.6988 15.0614 14.6293 15.1505 14.5882C15.2396 14.5471 15.3376 14.5364 15.4321 14.5573C15.5267 14.5782 15.6136 14.6298 15.6818 14.7056C15.7271 14.756 15.763 14.8158 15.7875 14.8817C15.812 14.9475 15.8247 15.0181 15.8247 15.0894C15.8247 15.1606 15.812 15.2312 15.7875 15.297C15.763 15.3629 15.7271 15.4227 15.6818 15.4731Z" fill="#A9C2C2"/>
<path fill-rule="evenodd" clip-rule="evenodd" d="M15.3371 15.6318C15.2407 15.6318 15.1465 15.6 15.0663 15.5404C14.9861 15.4808 14.9236 15.3961 14.8867 15.297C14.8498 15.1978 14.8402 15.0888 14.859 14.9835C14.8778 14.8783 14.9242 14.7816 14.9924 14.7058C15.0606 14.6299 15.1475 14.5782 15.242 14.5573C15.3366 14.5364 15.4346 14.5471 15.5237 14.5882C15.6128 14.6292 15.6889 14.6988 15.7425 14.788C15.7961 14.8772 15.8247 14.9821 15.8247 15.0894C15.8244 15.2332 15.773 15.371 15.6816 15.4727C15.5902 15.5744 15.4664 15.6316 15.3371 15.6318Z" fill="#A9C2C2"/>
<path fill-rule="evenodd" clip-rule="evenodd" d="M14.9923 15.4728C14.9241 15.397 14.8777 15.3003 14.859 15.1951C14.8402 15.0898 14.8498 14.9808 14.8868 14.8817C14.9237 14.7826 14.9861 14.6979 15.0663 14.6383C15.1465 14.5787 15.2407 14.5469 15.3371 14.5469C15.4335 14.5469 15.5278 14.5787 15.608 14.6383C15.6881 14.6979 15.7506 14.7826 15.7875 14.8817C15.8244 14.9808 15.8341 15.0898 15.8153 15.1951C15.7965 15.3003 15.7501 15.397 15.682 15.4728C15.6367 15.5232 15.5829 15.5632 15.5238 15.5905C15.4646 15.6178 15.4012 15.6318 15.3371 15.6318C15.2731 15.6318 15.2097 15.6178 15.1505 15.5905C15.0913 15.5632 15.0376 15.5232 14.9923 15.4728Z" fill="#A9C2C2"/>
<path fill-rule="evenodd" clip-rule="evenodd" d="M14.8496 15.0893C14.8494 14.9817 14.8779 14.8766 14.9315 14.7871C14.9851 14.6976 15.0613 14.6278 15.1505 14.5866C15.2397 14.5453 15.3379 14.5344 15.4327 14.5553C15.5275 14.5761 15.6146 14.6278 15.683 14.7038C15.7514 14.7797 15.798 14.8765 15.8169 14.982C15.8358 15.0874 15.8262 15.1967 15.7892 15.2961C15.7523 15.3954 15.6897 15.4803 15.6094 15.5401C15.529 15.5999 15.4346 15.6317 15.338 15.6317C15.2739 15.6319 15.2104 15.6179 15.1511 15.5907C15.0919 15.5635 15.0381 15.5236 14.9927 15.4732C14.9473 15.4228 14.9114 15.363 14.8868 15.2971C14.8622 15.2312 14.8496 15.1606 14.8496 15.0893Z" fill="#A9C2C2"/>
<path fill-rule="evenodd" clip-rule="evenodd" d="M15.3369 12.6855C15.7647 12.6855 16.1829 12.8267 16.5386 13.0912C16.8944 13.3557 17.1716 13.7316 17.3353 14.1714C17.499 14.6112 17.5419 15.0952 17.4584 15.5621C17.375 16.029 17.1689 16.4578 16.8664 16.7944C16.5639 17.1311 16.1785 17.3603 15.7589 17.4532C15.3393 17.546 14.9044 17.4984 14.5091 17.3162C14.1139 17.134 13.7761 16.8255 13.5384 16.4297C13.3007 16.0339 13.1738 15.5685 13.1738 15.0925C13.1738 14.4541 13.4017 13.8419 13.8074 13.3905C14.213 12.9391 14.7632 12.6855 15.3369 12.6855ZM15.3369 13.303C15.0195 13.303 14.7092 13.4078 14.4453 13.604C14.1814 13.8002 13.9757 14.0791 13.8542 14.4054C13.7328 14.7317 13.701 15.0908 13.7629 15.4372C13.8248 15.7836 13.9777 16.1018 14.2021 16.3515C14.4266 16.6012 14.7125 16.7713 15.0238 16.8402C15.3351 16.9091 15.6578 16.8738 15.951 16.7386C16.2443 16.6035 16.4949 16.3746 16.6713 16.0809C16.8476 15.7872 16.9417 15.442 16.9417 15.0888C16.9418 14.8542 16.9004 14.622 16.8198 14.4053C16.7392 14.1885 16.621 13.9916 16.4719 13.8258C16.3229 13.6599 16.1459 13.5284 15.9512 13.4387C15.7564 13.349 15.5477 13.3029 15.3369 13.303Z" fill="#000044"/>
<path fill-rule="evenodd" clip-rule="evenodd" d="M15.3381 13.3047C15.6555 13.3049 15.9657 13.4098 16.2295 13.6061C16.4933 13.8024 16.6988 14.0814 16.8202 14.4077C16.9415 14.734 16.9732 15.0931 16.9112 15.4394C16.8491 15.7857 16.6962 16.1039 16.4718 16.3535C16.2473 16.6032 15.9613 16.7731 15.65 16.842C15.3388 16.9108 15.0161 16.8754 14.7229 16.7402C14.4297 16.605 14.1791 16.3761 14.0028 16.0825C13.8265 15.7888 13.7324 15.4436 13.7324 15.0904C13.7324 14.6168 13.9015 14.1626 14.2025 13.8277C14.5034 13.4928 14.9116 13.3047 15.3373 13.3047M15.3373 13.9768C15.1398 13.9768 14.9468 14.0419 14.7826 14.164C14.6184 14.2861 14.4905 14.4596 14.4149 14.6626C14.3393 14.8655 14.3196 15.0889 14.3581 15.3044C14.3966 15.5199 14.4917 15.7178 14.6313 15.8732C14.7709 16.0286 14.9488 16.1344 15.1425 16.1772C15.3361 16.2201 15.5369 16.1981 15.7193 16.114C15.9017 16.0299 16.0576 15.8875 16.1673 15.7049C16.277 15.5222 16.3356 15.3074 16.3356 15.0877C16.3356 14.793 16.2304 14.5105 16.0432 14.3022C15.856 14.0938 15.602 13.9768 15.3373 13.9768Z" fill="#A9C2C2"/>
<path d="M15.3367 16.3526C15.112 16.3527 14.8924 16.2788 14.7055 16.14C14.5186 16.0012 14.3729 15.8039 14.2869 15.5729C14.2008 15.342 14.1782 15.0878 14.222 14.8426C14.2658 14.5974 14.374 14.3722 14.5329 14.1954C14.6917 14.0186 14.8942 13.8982 15.1145 13.8495C15.3349 13.8008 15.5633 13.8259 15.7708 13.9216C15.9784 14.0174 16.1557 14.1795 16.2804 14.3875C16.4052 14.5954 16.4717 14.8398 16.4715 15.0898C16.4713 15.4247 16.3516 15.7457 16.1389 15.9824C15.9261 16.2192 15.6376 16.3523 15.3367 16.3526ZM15.3367 13.4541C15.0461 13.4546 14.7621 13.551 14.5207 13.7311C14.2792 13.9112 14.0912 14.1668 13.9803 14.4658C13.8694 14.7647 13.8407 15.0935 13.8977 15.4107C13.9547 15.7278 14.0949 16.019 14.3006 16.2475C14.5063 16.476 14.7682 16.6315 15.0533 16.6944C15.3384 16.7573 15.6339 16.7247 15.9023 16.6009C16.1708 16.477 16.4003 16.2673 16.5617 15.9984C16.7231 15.7294 16.8093 15.4133 16.8093 15.0898C16.8094 14.8747 16.7713 14.6617 16.6974 14.4629C16.6234 14.2642 16.5149 14.0836 16.3781 13.9316C16.2413 13.7796 16.0789 13.659 15.9002 13.5769C15.7215 13.4948 15.53 13.4528 15.3367 13.4531" fill="#7E9191"/>
<path fill-rule="evenodd" clip-rule="evenodd" d="M15.1413 14.6935C15.1676 14.6772 15.1955 14.6645 15.2245 14.6555L15.2777 13.877H15.3959L15.4499 14.6555C15.4789 14.6646 15.5068 14.6773 15.5331 14.6935L16.0656 14.1852L16.108 14.2315L16.1496 14.2787L15.6937 14.8712C15.708 14.9006 15.7194 14.9317 15.7278 14.9638L16.4275 15.023V15.1554L15.7286 15.2119C15.7201 15.2439 15.7087 15.275 15.6945 15.3045L16.1504 15.8969L16.1088 15.9441L16.0664 15.9904L15.534 15.4831C15.5075 15.4989 15.4796 15.5116 15.4508 15.5211L15.3967 16.2996H15.2777L15.2245 15.5211C15.1956 15.5117 15.1677 15.499 15.1413 15.4831L14.6088 15.9904L14.5664 15.9441L14.5248 15.8969L14.9799 15.3045C14.9654 15.2752 14.9539 15.2441 14.9458 15.2119L14.2461 15.1517V15.0267L14.9458 14.9675C14.9538 14.9352 14.9653 14.9042 14.9799 14.8749L14.5231 14.2824L14.5647 14.2352L14.6072 14.1889L15.1413 14.6935Z" fill="#A9C2C2"/>
<path fill-rule="evenodd" clip-rule="evenodd" d="M13.4922 12.0517L13.884 11.8008L15.5163 14.9881C15.5779 15.1085 15.5213 15.2344 15.4331 15.3316C15.3449 15.4288 15.1835 15.3603 15.1245 15.239L13.4922 12.0517Z" fill="white"/>
<path fill-rule="evenodd" clip-rule="evenodd" d="M15.3379 12.0156C15.5832 12.0155 15.8275 12.052 16.0642 12.1239C16.0982 12.1336 16.1292 12.1532 16.1541 12.1807C16.1791 12.2082 16.1969 12.2426 16.2059 12.2803C16.2149 12.318 16.2147 12.3578 16.2053 12.3954C16.1959 12.433 16.1776 12.4671 16.1524 12.4942L13.0034 15.9982C12.979 16.0262 12.9484 16.0466 12.9146 16.057C12.8808 16.0675 12.8451 16.0678 12.8112 16.0578C12.7773 16.0478 12.7464 16.0279 12.7217 16.0002C12.697 15.9724 12.6793 15.9379 12.6707 15.9001C12.5596 15.4444 12.5442 14.9664 12.6258 14.5031C12.7074 14.0398 12.8837 13.6036 13.1411 13.2283C13.3985 12.853 13.7301 12.5487 14.1102 12.3389C14.4902 12.1291 14.9086 12.0194 15.3329 12.0184L15.3379 12.0156Z" fill="white"/>
<path fill-rule="evenodd" clip-rule="evenodd" d="M5.91977 11.4171L10.2035 11.3477C9.39483 13.1149 9.35906 14.3934 10.2035 15.4589H8.24175L8.10198 15.3052H3.374C3.31678 15.3054 3.26019 15.2919 3.20805 15.2657C3.15591 15.2395 3.10943 15.2011 3.07174 15.1532C3.03405 15.1053 3.00603 15.049 2.98957 14.988C2.97311 14.927 2.96859 14.8628 2.97633 14.7998C3.1918 13.0057 4.17767 11.6735 5.74589 11.5809C5.93225 11.5698 5.95471 11.4643 5.91977 11.4171Z" fill="white"/>
<path fill-rule="evenodd" clip-rule="evenodd" d="M9.55274 15.218H9.76988C9.11097 14.0765 9.34974 12.811 9.85308 11.5918H9.68668C9.61459 11.5913 9.54408 11.6153 9.4846 11.6606C9.42512 11.706 9.37952 11.7705 9.3539 11.8455C8.97953 12.899 8.82894 13.9747 9.21996 14.9745C9.24693 15.0476 9.29314 15.11 9.35252 15.1535C9.4119 15.1969 9.48169 15.2194 9.55274 15.218Z" fill="white"/>
<path fill-rule="evenodd" clip-rule="evenodd" d="M8.1998 15.3526H10.1133C10.7214 15.3526 11.5376 15.4451 11.9195 14.7444L13.5958 11.6468C13.8088 11.2524 13.8113 10.9525 13.6957 10.4165L13.313 8.63906C13.2789 8.48169 13.2631 8.36134 13.3962 8.36134H13.5725C13.6533 8.36063 13.7318 8.39048 13.7953 8.44599C13.8588 8.5015 13.9035 8.57938 13.922 8.66684L14.2589 10.2128C14.328 10.5267 14.5601 11.5644 14.412 11.8421L12.3604 15.6747H8.1582C8.17725 15.5682 8.19113 15.4607 8.1998 15.3526Z" fill="white"/>
<path d="M12.3166 15.6465H8.12692C8.09889 15.6465 8.07617 15.6718 8.07617 15.703V15.9112C8.07617 15.9424 8.09889 15.9677 8.12692 15.9677H12.3166C12.3447 15.9677 12.3674 15.9424 12.3674 15.9112V15.703C12.3674 15.6718 12.3447 15.6465 12.3166 15.6465Z" fill="white"/>
<path fill-rule="evenodd" clip-rule="evenodd" d="M5.99424 11.9141C6.73189 11.9139 7.44455 12.2115 7.99994 12.7517C8.55533 13.2919 8.91572 14.038 9.01422 14.8515C9.02101 14.908 9.0168 14.9656 9.0019 15.0202C8.987 15.0748 8.96174 15.1252 8.92783 15.168C8.89392 15.2108 8.85215 15.2451 8.80534 15.2684C8.75853 15.2917 8.70777 15.3036 8.65648 15.3032H3.33199C3.28076 15.3033 3.23011 15.2912 3.18343 15.2677C3.13676 15.2443 3.09515 15.2099 3.06141 15.167C3.02767 15.1241 3.00258 15.0737 2.98783 15.0191C2.97309 14.9645 2.96902 14.907 2.97592 14.8505C3.07457 14.0375 3.4348 13.2919 3.98982 12.752C4.54484 12.212 5.257 11.9143 5.99424 11.9141Z" fill="white"/>
<path fill-rule="evenodd" clip-rule="evenodd" d="M5.99512 12.2422C6.62137 12.2422 7.22637 12.495 7.69788 12.9536C8.1694 13.4122 8.47542 14.0455 8.55919 14.7361C8.56573 14.7841 8.56254 14.8331 8.54988 14.8796C8.53721 14.926 8.51538 14.9688 8.48598 15.0046C8.47858 15.0145 8.47051 15.0238 8.46185 15.0324C8.29594 14.4492 7.9674 13.9399 7.52387 13.5785C7.08034 13.217 6.54487 13.0222 5.99512 13.0222C5.44536 13.0222 4.90989 13.217 4.46636 13.5785C4.02283 13.9399 3.69429 14.4492 3.52838 15.0324C3.51972 15.0238 3.51165 15.0145 3.50425 15.0046C3.47485 14.9688 3.45302 14.926 3.44035 14.8796C3.42769 14.8331 3.4245 14.7841 3.43104 14.7361C3.51481 14.0455 3.82083 13.4122 4.29235 12.9536C4.76386 12.495 5.36886 12.2422 5.99512 12.2422Z" fill="white"/>
<path d="M10.2187 10.5352H5.84094C5.78856 10.5352 5.74609 10.5824 5.74609 10.6407V11.31C5.74609 11.3683 5.78856 11.4155 5.84094 11.4155H10.2187C10.271 11.4155 10.3135 11.3683 10.3135 11.31V10.6407C10.3135 10.5824 10.271 10.5352 10.2187 10.5352Z" fill="white"/>
<path d="M7.72216 5.20508H2.67804C2.57971 5.20508 2.5 5.29377 2.5 5.40319V10.3282C2.5 10.4376 2.57971 10.5263 2.67804 10.5263H7.72216C7.82049 10.5263 7.9002 10.4376 7.9002 10.3282V5.40319C7.9002 5.29377 7.82049 5.20508 7.72216 5.20508Z" fill="white"/>
<path fill-rule="evenodd" clip-rule="evenodd" d="M2.96666 5.50781H7.43175C7.45251 5.50781 7.47306 5.51236 7.49224 5.5212C7.51142 5.53004 7.52884 5.543 7.54352 5.55933C7.5582 5.57566 7.56984 5.59505 7.57779 5.61639C7.58573 5.63773 7.58982 5.66061 7.58982 5.6837V7.49261C5.9933 8.21191 3.92674 6.53539 2.80859 8.89604V5.6837C2.80859 5.66061 2.81268 5.63773 2.82063 5.61639C2.82857 5.59505 2.84021 5.57566 2.85489 5.55933C2.86957 5.543 2.887 5.53004 2.90617 5.5212C2.92535 5.51236 2.94591 5.50781 2.96666 5.50781Z" fill="white"/>
<path fill-rule="evenodd" clip-rule="evenodd" d="M14.5632 9.02178C14.6722 9.0116 14.7803 9.26248 14.8045 9.58279C14.8286 9.90309 14.7604 10.1706 14.6514 10.1808C14.5424 10.191 14.4342 9.94012 14.4093 9.61982C14.3843 9.29951 14.4559 9.03197 14.5632 9.02178Z" fill="#F1CF00"/>
<path fill-rule="evenodd" clip-rule="evenodd" d="M14.5212 8.94617C14.5309 8.9446 14.5407 8.94519 14.5501 8.9479C14.5595 8.9506 14.5684 8.95537 14.5761 8.96192C14.5838 8.96847 14.5903 8.97667 14.5952 8.98605C14.6001 8.99542 14.6032 9.00578 14.6044 9.01652L14.7226 10.1663C14.7236 10.1767 14.7228 10.1872 14.7202 10.1973C14.7176 10.2073 14.7132 10.2167 14.7073 10.2248C14.7015 10.233 14.6942 10.2398 14.686 10.2449C14.6777 10.2499 14.6687 10.2531 14.6593 10.2542C14.2916 10.3005 13.9638 10.046 13.9272 9.68398C13.8906 9.32202 14.1543 8.99338 14.5212 8.94617Z" fill="white"/>
<path fill-rule="evenodd" clip-rule="evenodd" d="M14.4043 8.97023L14.5549 10.2598C14.5876 10.2598 14.6209 10.2579 14.6547 10.2542C14.6641 10.2531 14.6731 10.2499 14.6813 10.2449C14.6896 10.2398 14.6968 10.233 14.7027 10.2248C14.7086 10.2167 14.7129 10.2073 14.7156 10.1973C14.7182 10.1872 14.719 10.1767 14.7179 10.1663L14.5998 9.01652C14.5986 9.00578 14.5954 8.99542 14.5906 8.98605C14.5857 8.97667 14.5792 8.96847 14.5715 8.96192C14.5637 8.95537 14.5549 8.9506 14.5455 8.9479C14.536 8.94519 14.5262 8.9446 14.5166 8.94617C14.4787 8.95133 14.4412 8.95937 14.4043 8.97023Z" fill="#9DC6C6"/>
<path d="M12.6064 8.33281L12.5857 8.42247C12.575 8.46853 12.6 8.51545 12.6413 8.52728L13.4358 8.75444C13.4772 8.76627 13.5194 8.73853 13.53 8.69248L13.5507 8.60282C13.5614 8.55676 13.5364 8.50984 13.4951 8.49801L12.7006 8.27085C12.6592 8.25902 12.617 8.28676 12.6064 8.33281Z" fill="white"/>
<path d="M10.2318 14.7101C10.1956 14.7906 10.1677 14.8754 10.1486 14.9629C10.1383 15.0067 10.136 15.0524 10.1418 15.0973C10.1477 15.1421 10.1616 15.1852 10.1827 15.2239C10.2659 15.3665 10.4523 15.3702 10.607 15.3591L10.8341 15.3424C10.9307 15.3359 11.0438 15.3184 11.0921 15.2249C11.1403 15.1314 11.1054 15.0397 11.0812 14.9471C11.0238 14.7372 10.9957 14.5186 10.998 14.2991C11.0034 14.2345 10.9971 14.1694 10.9797 14.1075C10.9624 14.0665 10.9369 14.0304 10.9052 14.002C10.8735 13.9736 10.8364 13.9537 10.7967 13.9436C10.6195 13.8899 10.4856 13.8946 10.4373 14.0843C10.3834 14.2985 10.3147 14.5078 10.2318 14.7101Z" fill="#191213"/>
<path d="M10.8339 11.7804C10.8768 11.8249 10.9091 11.8805 10.9279 11.9424C10.938 12.0019 10.9334 12.0633 10.9146 12.1201C10.8472 12.3738 10.6975 12.6043 10.6841 12.869C10.6864 12.9488 10.6836 13.0286 10.6758 13.1079C10.6558 13.1949 10.6226 13.2776 10.5777 13.3523L10.4113 13.655C10.3722 13.7143 10.3499 13.7852 10.3472 13.8586C10.3547 13.9957 10.4895 14.0743 10.6068 14.1179C10.6742 14.1429 10.7599 14.1614 10.8098 14.1049C10.8282 14.0792 10.8418 14.0496 10.8497 14.0179C11.0527 13.3458 11.2562 12.6734 11.4604 12.0007C11.5111 11.8322 11.5619 11.648 11.5061 11.4823C11.4437 11.2971 11.2732 11.1971 11.1151 11.112L10.6758 10.8722C10.5477 10.8028 10.3738 10.7407 10.2798 10.8611C10.1484 11.0277 10.2798 11.1638 10.3821 11.2527C10.5519 11.3906 10.6941 11.61 10.8339 11.7804Z" fill="#2E4C5E"/>
<path d="M10.5337 14.7719C10.4725 14.9099 10.4423 15.0624 10.4456 15.2163C10.4464 15.2504 10.4579 15.2831 10.478 15.3088C10.4974 15.3273 10.521 15.3394 10.5462 15.344C10.9758 15.4708 11.4252 15.4904 11.8624 15.4014C11.9263 15.3931 11.9876 15.368 12.0412 15.3283C12.0667 15.3077 12.0857 15.2788 12.0957 15.2456C12.1057 15.2124 12.1061 15.1766 12.097 15.1431C12.0654 15.0626 11.973 15.0441 11.894 15.0339C11.7529 15.0246 11.6148 14.984 11.488 14.9145C11.4255 14.8789 11.3721 14.8262 11.3329 14.7615C11.2936 14.6967 11.2697 14.622 11.2634 14.5442C11.2634 14.4248 11.3091 14.2813 11.2284 14.2026C11.1862 14.1703 11.1357 14.1541 11.0845 14.1563C10.9181 14.1433 10.8266 14.1026 10.7243 14.2415C10.6336 14.3535 10.5853 14.6229 10.5337 14.7719Z" fill="#281B1C"/>
<path d="M8.37711 6.90702C8.01355 7.66798 7.82969 8.51689 7.64915 9.35469C7.62784 9.42725 7.62327 9.50461 7.63584 9.57965C7.64319 9.61679 7.66245 9.64968 7.69001 9.67217C7.71757 9.69466 7.75155 9.70521 7.78559 9.70185C7.78559 9.77406 7.78559 9.84626 7.78559 9.91847C7.83471 9.98874 7.89699 10.0463 7.96811 10.087C8.03923 10.1278 8.11748 10.1508 8.19741 10.1545C8.35723 10.1606 8.517 10.1407 8.67162 10.0953L9.68577 9.85737C9.75491 9.85037 9.81994 9.81778 9.87046 9.7648C9.91372 9.7037 9.89792 9.59076 9.8297 9.57965C10.0693 9.53244 10.17 9.21861 10.2257 8.95477C10.2814 8.69093 10.338 8.42432 10.3921 8.15956C10.4968 7.74204 10.5601 7.31303 10.581 6.88018C10.581 6.56079 10.5568 6.19512 10.7607 5.97017C10.8239 5.89981 10.9087 5.84519 10.9404 5.75169C10.9886 5.6082 10.8888 5.46008 10.7956 5.34807C10.6736 5.2018 10.5518 5.05522 10.4304 4.90834C10.4135 4.88194 10.3882 4.86372 10.3597 4.85742C10.3431 4.85966 10.3271 4.86576 10.3127 4.87533C10.2984 4.8849 10.286 4.89772 10.2765 4.91297C10.1332 5.09482 9.95566 5.23928 9.75649 5.33603C9.55297 5.44823 9.36314 5.58884 9.19159 5.75447C8.87711 6.047 8.53268 6.4747 8.37711 6.90702Z" fill="white"/>
<path d="M9.02909 7.47609C8.98 7.95285 9.08483 8.47497 9.40264 8.7999C9.62535 9.01059 9.90234 9.13731 10.1938 9.16187C10.4832 9.18591 10.7741 9.17567 11.0615 9.13132L11.1156 9.02208L11.3195 9.1017L11.3943 9.00171C11.4079 9.04222 11.4344 9.07576 11.4688 9.0959C11.5031 9.11605 11.543 9.12141 11.5807 9.11095C11.6037 8.88908 11.6617 8.67348 11.7521 8.47404C11.2279 8.35925 10.6972 8.24168 10.2179 7.97784C10.1472 7.9246 10.0612 7.9025 9.97668 7.91582C10.0401 7.52718 10.0572 7.13094 10.0274 6.73734C10.0133 6.55219 9.985 6.35316 9.87685 6.20967C9.37185 5.53295 9.0607 7.16504 9.02909 7.47609Z" fill="white"/>
<path d="M10.056 6.49339C10.0454 6.40343 10.0236 6.31556 9.99114 6.23232C9.9537 6.14623 9.87134 6.06384 9.78981 6.09439C9.68997 6.13049 9.68748 6.28417 9.70661 6.39988C9.75597 6.73562 9.80534 7.07167 9.8547 7.40802C9.88964 7.64686 9.92458 7.89681 9.8547 8.1264L9.9928 8.11066L10.0028 8.281C10.3598 8.39681 10.7263 8.47248 11.0968 8.50688C11.0893 8.35413 10.9204 8.29396 10.7873 8.25971C10.6243 8.22147 10.466 8.1618 10.3156 8.08196C10.1334 7.97921 10.1567 7.94218 10.1542 7.71167C10.1497 7.30337 10.1168 6.89607 10.056 6.49339Z" fill="white"/>
<path d="M10.6014 5.93358C10.6816 5.87001 10.7548 5.79605 10.8193 5.71326L10.6272 5.44479C10.6181 5.43054 10.6065 5.41856 10.593 5.40961C10.5788 5.40381 10.5634 5.40273 10.5486 5.40651C10.5338 5.41029 10.5204 5.41877 10.5099 5.4309C10.4827 5.46189 10.4646 5.50127 10.4579 5.54388C10.4513 5.5865 10.4563 5.63037 10.4724 5.66975C10.5059 5.74791 10.5534 5.81756 10.6122 5.87433" fill="white"/>
<path d="M9.85431 9.52236C9.78097 9.57685 9.69166 9.59805 9.60472 9.58161C9.56176 9.58304 9.51916 9.57254 9.48076 9.55106C9.46182 9.53945 9.44741 9.52043 9.44035 9.49768C9.43328 9.47494 9.43404 9.45009 9.44249 9.42793C9.45573 9.4108 9.47245 9.39742 9.49125 9.38889C9.51006 9.38036 9.53041 9.37692 9.55064 9.37887C9.60922 9.37975 9.66757 9.3707 9.72369 9.35202C9.7518 9.34251 9.77733 9.32533 9.79797 9.30205C9.8186 9.27877 9.83367 9.25013 9.84183 9.21871C9.85375 9.21329 9.86655 9.21065 9.87942 9.21096C9.8923 9.21127 9.90498 9.21452 9.91668 9.22051C9.92839 9.2265 9.93886 9.2351 9.94745 9.24578C9.95604 9.25646 9.96256 9.26899 9.96662 9.28259C9.97315 9.31091 9.97298 9.34063 9.96613 9.36886C9.95927 9.39709 9.94597 9.42286 9.92752 9.44367C9.89026 9.48508 9.84657 9.51864 9.79857 9.54272" fill="white"/>
<path d="M8.22231 10.6489C8.4486 10.7933 8.71566 10.8294 8.97107 10.8627L9.83713 10.9747C10.2365 11.0266 10.6816 11.1053 10.9253 11.4607C10.9455 11.5023 10.9777 11.5349 11.0168 11.5533C11.0623 11.5554 11.1076 11.5446 11.1483 11.5218C11.1915 11.508 11.2539 11.5218 11.2581 11.5728C11.2345 11.5968 11.2161 11.6264 11.2041 11.6594C11.1922 11.6924 11.187 11.7279 11.189 11.7635L11.2872 11.7449C11.2903 11.7901 11.2851 11.8355 11.2721 11.8785C11.2591 11.9214 11.2385 11.961 11.2115 11.9949C11.074 12.2347 10.9901 12.5077 10.9669 12.791C10.9511 12.991 10.9669 13.2058 10.8687 13.378C10.8263 13.4557 10.7648 13.5187 10.7207 13.5955C10.6807 13.6664 10.657 13.7472 10.6516 13.8306C10.6489 13.8992 10.6588 13.9677 10.6807 14.0318C10.7027 14.096 10.7362 14.1544 10.7792 14.2036C10.8223 14.2528 10.8739 14.2916 10.9309 14.3178C10.9879 14.3439 11.0492 14.3567 11.1108 14.3555C11.3654 14.3324 11.5368 14.0621 11.6599 13.8131C12.0473 13.0538 12.2985 12.2182 12.3995 11.3524C12.4217 11.21 12.4166 11.0639 12.3846 10.9238C12.2964 10.6128 11.9969 10.4507 11.724 10.3313C11.2653 10.1289 10.7972 9.94622 10.3197 9.78329C10.1917 9.73511 10.059 9.70403 9.92448 9.69071C9.80393 9.68596 9.68325 9.69465 9.56425 9.71663L8.1882 9.91752C7.97522 9.94807 7.80384 9.91011 7.87955 10.2008C7.93957 10.3925 8.06183 10.5523 8.22231 10.6489Z" fill="#3D5E77"/>
<path d="M11.319 10.6009C11.4593 10.6497 11.5898 10.7283 11.7034 10.8323C11.9588 11.1008 11.9372 11.5627 11.8273 11.9349C11.7175 12.307 11.5386 12.6671 11.5411 13.0587C11.5936 13.1096 11.6676 13.0328 11.7 12.9661C11.9381 12.4607 12.0909 11.911 12.151 11.3442C12.1796 11.1967 12.1625 11.0427 12.1027 10.9073C12.0322 10.8038 11.9371 10.7243 11.8282 10.6777C11.2965 10.3889 10.6227 9.98339 10.0295 9.91211C10.0128 10.2065 11.0936 10.5055 11.319 10.6009Z" fill="#4A6D82"/>
<path d="M12.047 9.0304C12.0998 9.03492 12.153 9.03149 12.205 9.02022C12.4014 8.96931 12.512 8.71843 12.7042 8.65548C12.7163 8.65245 12.7288 8.65245 12.7408 8.65548C12.7581 8.66109 12.7733 8.67278 12.7841 8.6888C12.8125 8.73047 12.8449 8.76865 12.8806 8.80267C12.8985 8.81946 12.9202 8.83049 12.9434 8.83457C12.9666 8.83865 12.9903 8.83562 13.012 8.82582C13.0223 8.82002 13.0311 8.81162 13.0379 8.8013C13.0447 8.79098 13.0492 8.77902 13.0511 8.7664C13.0529 8.75379 13.0521 8.74085 13.0487 8.72866C13.0452 8.71647 13.0392 8.70535 13.0312 8.69621C13.0409 8.71831 13.0581 8.73521 13.079 8.74319C13.0999 8.75118 13.1228 8.7496 13.1426 8.73879C13.1625 8.72799 13.1777 8.70885 13.1849 8.68559C13.192 8.66233 13.1906 8.63684 13.1809 8.61475C13.1907 8.63277 13.2053 8.6469 13.2228 8.65512C13.2402 8.66333 13.2595 8.66522 13.278 8.6605C13.2964 8.65577 13.313 8.64469 13.3255 8.62883C13.3379 8.61297 13.3456 8.59313 13.3473 8.57216C13.3523 8.51106 13.3082 8.46107 13.2716 8.41571C13.2183 8.34906 13.1734 8.27314 13.1177 8.20927C13.0641 8.14147 12.9913 8.09607 12.9114 8.08059C12.8476 8.07733 12.784 8.08966 12.725 8.11669C12.5894 8.16863 12.4583 8.23401 12.3332 8.31203C12.2357 8.37787 12.1352 8.43782 12.032 8.49162C11.9282 8.54566 11.8121 8.56311 11.6992 8.54161C11.6302 8.52495 11.5328 8.93783 11.5619 8.99615C11.5911 9.05447 11.715 9.02392 11.7666 9.02578L12.047 9.0304Z" fill="#EDB38C"/>
<path d="M12.4511 4.23397C12.501 4.32655 12.6175 4.35617 12.6549 4.45337C12.5858 4.48358 12.5233 4.52996 12.4716 4.58937C12.4199 4.64878 12.3803 4.71984 12.3554 4.79775C12.2972 4.9829 12.3205 5.20878 12.2007 5.3532C12.0925 5.4828 11.9095 5.49021 11.7556 5.44577C11.6017 5.40134 11.4569 5.32172 11.2989 5.30321C11.2004 5.29291 11.1012 5.30737 11.0084 5.34551C10.9157 5.38364 10.8319 5.44448 10.7631 5.52353C10.7315 5.56056 10.694 5.60593 10.6491 5.59667C10.6187 5.58567 10.5929 5.56261 10.5767 5.53187L10.3496 5.19119C10.4588 5.05801 10.5183 4.88357 10.516 4.70332C10.516 4.56446 10.4752 4.4256 10.4669 4.29137C10.4361 3.78776 10.828 3.3397 11.2689 3.22028C11.6133 3.12771 12.1924 3.16566 12.4902 3.40543C12.7881 3.6452 12.2947 3.95347 12.4511 4.23397Z" fill="#EDB38C"/>
<path d="M12.1603 3.69433C12.1811 3.75451 12.1054 3.79987 12.0472 3.79987C11.9341 3.79987 11.8251 3.74988 11.7144 3.73969C11.6038 3.72951 11.4648 3.77487 11.4316 3.89337C11.4175 3.97638 11.4206 4.06186 11.4407 4.14332C11.4507 4.22756 11.4324 4.32847 11.3575 4.36087C11.2951 4.2683 11.3167 4.12943 11.241 4.05445C11.2045 4.02938 11.1625 4.0161 11.1196 4.0161C11.0767 4.0161 11.0346 4.02938 10.9981 4.05445C10.9289 4.08135 10.8701 4.13399 10.8317 4.20349C10.7568 4.37013 10.8941 4.57379 10.8384 4.75339C10.8168 4.81116 10.7845 4.86322 10.7435 4.90613C10.6991 4.96496 10.6441 5.01287 10.5821 5.04685C10.5509 5.063 10.5161 5.06913 10.4819 5.06455C10.4477 5.05998 10.4152 5.04487 10.3883 5.02093C10.3051 4.92835 10.3509 4.77653 10.3292 4.65063C10.3076 4.52473 10.2036 4.41179 10.1811 4.28033C10.1733 4.20516 10.179 4.12902 10.1978 4.0563C10.2294 3.86533 10.289 3.68144 10.3741 3.51196C10.5322 3.24291 10.7754 3.0499 11.0555 2.97133C11.3339 2.89547 11.6237 2.88788 11.9049 2.94911C12.0288 2.96665 12.1487 3.00966 12.2585 3.07593C12.3841 3.15925 12.499 3.29811 12.6445 3.28423C12.605 3.32326 12.5585 3.35259 12.5081 3.37032C12.5758 3.40556 12.6365 3.45526 12.687 3.51659C12.6768 3.53388 12.663 3.5482 12.6468 3.55835C12.6305 3.5685 12.6124 3.57418 12.5938 3.57491C12.6045 3.59295 12.6111 3.61362 12.6131 3.63514C12.615 3.65665 12.6122 3.67837 12.6049 3.69841C12.5976 3.71846 12.5861 3.73623 12.5712 3.7502C12.5564 3.76416 12.5387 3.7739 12.5197 3.77858C12.4582 3.78598 12.3891 3.711 12.3259 3.70081C12.3428 3.71419 12.3589 3.72872 12.3742 3.74432C12.34 3.75173 12.182 3.75636 12.1603 3.69433Z" fill="#9E5E32"/>
<path d="M11.162 4.47257C11.162 4.4809 11.1512 4.48553 11.1446 4.4809C11.1392 4.47507 11.1355 4.46769 11.1338 4.45961C11.1242 4.42988 11.1228 4.39767 11.1296 4.36703C11.1318 4.35948 11.1354 4.35251 11.1401 4.34658C11.1449 4.34065 11.1507 4.33588 11.1572 4.33257C11.1637 4.32927 11.1707 4.3275 11.1778 4.32737C11.185 4.32725 11.1921 4.32877 11.1987 4.33185C11.2082 4.30527 11.2099 4.27602 11.2037 4.24826C11.1974 4.22051 11.1834 4.19566 11.1637 4.17725C11.1435 4.15958 11.1187 4.14952 11.093 4.14852C11.0673 4.14752 11.0419 4.15564 11.0206 4.1717C10.9888 4.20074 10.9656 4.23978 10.9541 4.28371C10.9398 4.31778 10.9346 4.35569 10.9391 4.39295C10.9472 4.42296 10.9605 4.45094 10.9782 4.47534L11.0356 4.56236C11.0539 4.59106 11.0772 4.62254 11.108 4.62346C11.1237 4.62196 11.1386 4.61454 11.1501 4.60244C11.1615 4.59033 11.169 4.57424 11.1712 4.55681C11.1747 4.52177 11.1699 4.4863 11.1571 4.45405" fill="#C19272"/>
<path d="M11.0066 4.63596C11.0453 4.63584 11.0833 4.62503 11.1173 4.60448C11.1481 4.58094 11.173 4.54909 11.1896 4.51191C11.2787 4.32676 11.3003 4.08792 11.4276 3.93887C11.5832 3.75372 11.8278 3.78057 12.0432 3.78057C12.2156 3.77967 12.3873 3.75637 12.5549 3.71114C12.5865 3.70461 12.6166 3.69073 12.6431 3.6704C12.6651 3.64643 12.6822 3.61752 12.6934 3.5856C12.7046 3.55368 12.7096 3.51947 12.708 3.48526C12.7154 3.22605 12.5524 3.00757 12.3752 2.86223C12.0742 2.60918 11.7029 2.48174 11.3261 2.50211C10.9484 2.5305 10.5912 2.70354 10.3153 2.99183C10.1551 3.14466 10.0422 3.34966 9.99247 3.57783C9.97126 3.72501 9.97126 3.87501 9.99247 4.02219C10.0017 4.15167 10.0298 4.27861 10.0757 4.39804C10.2562 4.79426 10.7046 4.65817 11.0066 4.63596Z" fill="white"/>
<path d="M10.7459 2.69354C10.5108 2.77455 10.3036 2.93345 10.1519 3.14901C10.0778 3.25702 10.0296 3.38415 10.0117 3.51852C9.99381 3.65289 10.0068 3.79012 10.0495 3.91738C10.0745 3.99423 10.1256 4.05707 10.1918 4.09234C10.2384 4.10775 10.2879 4.10818 10.3347 4.09361C10.3816 4.07903 10.4237 4.05003 10.4563 4.00995C10.5936 3.8572 10.6668 3.64613 10.8058 3.49061C10.9197 3.36286 11.0628 3.30546 11.1826 3.19252C11.2352 3.14631 11.2713 3.08078 11.2844 3.00767C11.2975 2.93456 11.2868 2.85865 11.2542 2.79352C11.1502 2.59078 10.9098 2.63059 10.7459 2.69354Z" fill="white"/>
<path d="M12.0087 4.02466C12.0903 3.97898 12.1813 3.95821 12.2724 3.96449C12.3165 3.96449 12.3631 3.9506 12.3648 3.89228V3.88672C12.3353 3.88661 12.3058 3.88877 12.2766 3.8932C12.2397 3.89012 12.2026 3.89167 12.166 3.89783C12.0985 3.907 12.0368 3.9448 11.9937 4.00337C11.9838 4.01818 11.9971 4.03114 12.0087 4.02466Z" fill="#4C3729"/>
<path d="M12.0321 4.17197C12.0901 4.14223 12.1529 4.12556 12.2168 4.12291C12.2492 4.11735 12.2875 4.1118 12.305 4.07754C12.3058 4.07583 12.3062 4.07389 12.306 4.07194C12.3059 4.07 12.3053 4.06813 12.3042 4.06657C12.3032 4.06501 12.3018 4.06382 12.3001 4.06314C12.2985 4.06246 12.2967 4.06232 12.295 4.06273C12.2733 4.06921 12.255 4.08402 12.2334 4.09143C12.2118 4.09884 12.186 4.10254 12.1619 4.10902C12.1153 4.12075 12.0711 4.14176 12.0312 4.17104L12.0321 4.17197Z" fill="#4C3729"/>
<path d="M12.1847 4.11586C12.1797 4.13807 12.1664 4.19362 12.1988 4.2001C12.2313 4.20658 12.2346 4.14733 12.2305 4.12326L12.218 4.10938L12.2038 4.11586V4.1353V4.14826V4.16677L12.208 4.15751V4.1464C12.208 4.13622 12.208 4.12696 12.203 4.11678L12.1847 4.11586Z" fill="#4C3729"/>
<path d="M12.1109 4.20026C12.1343 4.21545 12.1613 4.22224 12.1883 4.2197C12.2082 4.2197 12.239 4.21322 12.249 4.191L12.2448 4.18359C12.2274 4.18359 12.2116 4.19563 12.1941 4.19933C12.1679 4.20499 12.1408 4.20109 12.1167 4.18822C12.1092 4.18452 12.1034 4.19563 12.1109 4.20026Z" fill="#4C3729"/>
<path d="M12.1654 4.25431C12.1775 4.25612 12.1897 4.25348 12.2004 4.24678V4.23455C12.1896 4.23455 12.1796 4.23455 12.1688 4.23455C12.1664 4.23405 12.164 4.23462 12.1621 4.23612C12.1601 4.23762 12.1588 4.23993 12.1584 4.24255C12.1579 4.24517 12.1584 4.24788 12.1597 4.25009C12.1611 4.25229 12.1631 4.25381 12.1654 4.25431Z" fill="#4C3729"/>
</svg>
