<svg width="19" height="19" viewBox="0 0 19 19" fill="none" xmlns="http://www.w3.org/2000/svg">
<path d="M8.35113 11.9542L8.38733 12.0025L8.4356 12.0387C8.54925 12.1239 8.68378 12.1688 8.82585 12.1688H10.2246C10.3658 12.1688 10.5213 12.1231 10.6449 11.9995L10.3638 11.7184L10.6449 11.9995C10.7533 11.8911 10.8294 11.7418 10.8294 11.564V11.047C10.8294 10.8705 10.8814 10.7495 10.9726 10.6528L10.9727 10.6529L10.9803 10.6445C11.1226 10.4855 11.3575 10.2834 11.7017 10.0375C12.0648 9.77817 12.3626 9.53616 12.5875 9.31187C12.8428 9.06768 13.0516 8.76099 13.22 8.40303C13.4158 8.00923 13.5054 7.55821 13.5054 7.0635C13.5054 6.0949 13.1695 5.28549 12.4816 4.67988C11.7987 4.06838 10.9045 3.78274 9.84454 3.78274C9.13204 3.78274 8.48376 3.91979 7.9102 4.20591C7.33662 4.48188 6.88024 4.8836 6.55263 5.40935C6.22249 5.92893 6.06203 6.52034 6.06203 7.16993V7.39799C6.06203 7.54006 6.10688 7.67459 6.19211 7.78824L6.21012 7.81225L6.23135 7.83347C6.33737 7.93949 6.48249 8.01462 6.65511 8.01788L8.04728 8.07841L8.05645 8.07881H8.06563C8.18288 8.07881 8.3496 8.05272 8.48785 7.92599C8.63306 7.79288 8.67042 7.61998 8.67042 7.48922V7.16993C8.67042 6.88959 8.76492 6.68168 8.95509 6.51189C9.14502 6.34231 9.41196 6.23908 9.79892 6.23908C10.1651 6.23908 10.4175 6.33697 10.5978 6.49731L10.5978 6.49738L10.6046 6.50315C10.7739 6.64744 10.8666 6.83884 10.8666 7.12431C10.8666 7.3911 10.7932 7.59008 10.6631 7.74775C10.4903 7.94564 10.2162 8.18619 9.82558 8.46943C9.34292 8.81576 8.95617 9.15966 8.68062 9.50339C8.36071 9.8915 8.22105 10.3847 8.22105 10.9406V11.564C8.22105 11.706 8.26589 11.8406 8.35113 11.9542ZM8.40557 15.0099C8.69549 15.2998 9.06522 15.4377 9.47963 15.4377C9.88819 15.4377 10.2514 15.297 10.5385 15.0099C10.8284 14.72 10.9663 14.3503 10.9663 13.9359C10.9663 13.5253 10.8306 13.1585 10.5386 12.8769C10.257 12.5849 9.8902 12.4492 9.47963 12.4492C9.06703 12.4492 8.69872 12.5859 8.40937 12.8732C8.11465 13.1553 7.97778 13.5235 7.97778 13.9359C7.97778 14.3503 8.11565 14.72 8.40557 15.0099Z" stroke="#929292" stroke-width="0.844686"/>
<circle cx="9.5" cy="9.5" r="8.75" stroke="#929292" stroke-width="1.5"/>
</svg>
