<svg width="100" height="86" viewBox="0 0 100 86" fill="none" xmlns="http://www.w3.org/2000/svg">
<rect x="19" y="14" width="72" height="72" rx="36" fill="#2873FF"/>
<path fill-rule="evenodd" clip-rule="evenodd" d="M48.8306 26.0816C42.3347 26.795 36.8836 33.0581 37.8188 40.4103C38.6523 46.9629 44.5695 52.2324 52.0188 51.3983C58.4006 50.6838 64.0228 44.7346 63.1221 37.1741C62.2737 30.0513 55.8337 25.3125 48.8306 26.0816ZM65.7197 72.9327C65.3557 72.6534 64.9226 72.4233 64.4678 72.1817C63.9434 71.9031 63.3901 71.6091 62.8801 71.2066C62.418 70.8418 62.0499 70.5495 61.6466 70.1266C61.4658 69.9371 61.3315 69.762 61.1993 69.5897C61.0061 69.338 60.8173 69.092 60.4948 68.8153C58.8215 68.7617 57.0995 68.7759 55.3921 68.7899C54.6189 68.7962 53.8486 68.8026 53.0873 68.8026C52.6611 68.8026 52.212 68.8168 51.7537 68.8312C49.8157 68.8924 47.7151 68.9587 46.5073 67.9793L42.7983 64.2849C40.4503 61.6048 42.7316 59.3926 44.6023 57.5786C44.7412 57.4439 44.8779 57.3113 45.0102 57.181C45.0999 57.0926 45.1861 57.0075 45.2692 56.9255C46.2902 55.9175 46.8362 55.3784 47.4927 55.0961C48.2475 54.7714 49.1483 54.7861 51.0849 54.8177C51.8013 54.8294 52.6596 54.8434 53.7046 54.8434L59.2621 54.8476C60.6657 54.8652 60.7174 54.7907 61.0554 54.3045C61.1906 54.1101 61.3715 53.8498 61.7029 53.5033C61.9762 53.2176 62.2636 52.9289 62.6448 52.6013C62.96 52.3304 63.3739 52.0832 63.7859 51.8372C64.2076 51.5853 64.6273 51.3346 64.9373 51.0609C64.3751 50.5561 63.8469 50.2562 63.0165 49.9123C61.3804 49.2346 61.2091 49.4111 60.5608 50.0796C60.0342 50.6225 59.1929 51.4899 56.9967 52.4877C51.0034 55.2103 45.031 54.1441 40.1628 49.9356C39.4176 49.2914 39.3788 49.3079 38.4369 49.7058C38.3171 49.7564 38.1828 49.8132 38.0305 49.8755C36.644 50.4432 34.7731 51.7209 34.1175 52.4587C30.7773 56.2179 30.9088 60.6822 31.0616 65.872C31.0897 66.8269 31.1185 67.8063 31.1266 68.8104C31.1616 73.1462 34.4694 73.0634 38.2526 72.9687C38.8175 72.9545 39.3932 72.9401 39.9699 72.9401C42.7685 72.9401 45.5798 72.9552 48.395 72.9704C54.1792 73.0015 59.9797 73.0325 65.7197 72.9327ZM65.8096 62.7908C64.5407 56.8507 73.4201 55.1793 74.6201 60.8395C75.899 66.8715 67.0064 68.3941 65.8096 62.7908ZM58.0293 57.263C59.2639 57.2627 60.4984 57.2623 61.733 57.2623C62.0759 57.0566 62.2695 56.7472 62.5128 56.3573C62.9822 55.6054 63.638 54.5549 65.9135 53.375C74.5501 48.8972 84.4465 59.3195 77.2195 68.2295C77.1686 68.2922 77.1524 68.3161 77.142 68.3313C77.1244 68.3572 77.1242 68.3576 76.9982 68.4823C72.3787 73.0528 64.6073 71.7062 61.9359 66.3491C60.7131 66.3491 59.4903 66.349 58.2675 66.349C55.8219 66.3488 53.3762 66.3487 50.9306 66.3491C49.2712 66.3494 48.6847 66.3828 48.2342 66.1513C47.8603 65.9592 47.5802 65.5846 46.8579 64.8572C46.7712 64.7699 46.6359 64.6427 46.4717 64.4885C45.7095 63.7725 44.3256 62.4724 44.298 61.8582C44.2642 61.1022 45.562 59.9006 46.3099 59.2083C46.4637 59.0659 46.5942 58.9451 46.6851 58.8541C46.9133 58.6256 47.0963 58.4296 47.2531 58.2616C48.1096 57.3441 48.1878 57.2603 50.6218 57.2623C53.0909 57.2643 55.5601 57.2637 58.0293 57.263Z" fill="white"/>
<circle cx="5.5" cy="30.5" r="5.5" fill="#2873FF"/>
<circle cx="93.5" cy="78.5" r="5.5" fill="#2873FF"/>
<circle cx="97" cy="3" r="3" fill="#2873FF"/>
</svg>
