<svg width="120" height="43" viewBox="0 0 120 43" fill="none" xmlns="http://www.w3.org/2000/svg">
<path d="M21.3358 29.3733C20.6594 25.0905 19.8674 22.1301 17.9053 18.3468C16.9588 16.5218 17.6406 14.853 19.6948 14.771C20.9953 14.7192 22.4534 14.7104 23.7197 14.7567C25.597 14.8253 26.307 16.4082 25.5742 18.1378C23.9191 22.0437 22.9965 25.0397 21.7918 29.3998C21.7255 29.6398 21.3746 29.6193 21.3358 29.3733Z" fill="black"/>
<path d="M24.2452 29.7422C25.3645 27.6016 26.4665 22.9392 29.782 17.5176C31.7106 14.3639 35.6791 13.3544 39.1653 14.5839C39.2906 14.628 39.3343 14.785 39.2558 14.892C36.3341 18.8745 35.2784 20.9232 34.3219 23.298C32.6807 27.3731 28.8035 30.0207 24.4102 30.0207C24.2691 30.0207 24.1798 29.8673 24.2452 29.7422Z" fill="#F8842F"/>
<path d="M18.7558 29.7422C17.6364 27.6016 16.5345 22.9392 13.219 17.5176C11.2904 14.3639 7.32185 13.3544 3.83564 14.5839C3.71042 14.628 3.66667 14.785 3.74521 14.892C6.66687 18.8745 7.7226 20.9232 8.67903 23.298C10.3203 27.3731 14.1975 30.0207 18.5908 30.0207C18.7319 30.0207 18.8212 29.8673 18.7558 29.7422Z" fill="#F8842F"/>
<path fill-rule="evenodd" clip-rule="evenodd" d="M52.0487 26.8195H51.8455C51.123 26.8195 50.5021 26.6548 50.0001 26.3057L49.9973 26.3037C49.5027 25.9498 49.1768 25.4355 49.0135 24.7821L49.0131 24.7807L46.0713 12.7597L46.2437 12.6542C46.6533 12.4037 47.1373 12.2852 47.6842 12.2852C48.2317 12.2852 48.7019 12.4106 49.0709 12.6878C49.4429 12.9673 49.679 13.3744 49.7904 13.8829L49.791 13.8855L50.9961 19.6433L52.8608 13.4539C52.9615 13.1092 53.1386 12.8255 53.3972 12.6178C53.6599 12.3936 53.9748 12.2852 54.3274 12.2852C54.6787 12.2852 54.9926 12.3928 55.2547 12.6154C55.5284 12.8241 55.7088 13.1125 55.7971 13.4655L57.403 19.816L58.8651 13.8792C58.9769 13.3724 59.2127 12.9666 59.5838 12.6878C59.9528 12.4106 60.423 12.2852 60.9705 12.2852C61.5174 12.2852 62.0015 12.4037 62.411 12.6542L62.5835 12.7597L59.6413 24.7821C59.4775 25.4373 59.1441 25.9516 58.6374 26.3046C58.1466 26.6553 57.5306 26.8195 56.8092 26.8195H56.6101L54.2437 18.3561L52.0487 26.8195ZM63.9964 16.583C63.7456 16.7221 63.5483 16.9152 63.4155 17.1637C63.2832 17.4114 63.2233 17.6986 63.2233 18.0141V26.8195H63.4888C64.3612 26.8195 65.0544 26.7024 65.5351 26.4368L65.5404 26.4338C66.0574 26.1323 66.3108 25.6306 66.3108 24.9848V16.1794H66.0453C65.1733 16.1794 64.4787 16.3028 63.9964 16.583ZM69.289 26.1187C68.4918 25.6253 68.058 24.9397 68.058 24.0696C68.058 23.6406 68.2371 23.2792 68.5659 22.9985L68.5704 22.9947C68.9263 22.704 69.4531 22.5854 70.0963 22.5854H70.3139L70.3566 22.8081C70.4433 23.2603 70.6552 23.6065 70.9954 23.8625C71.344 24.1118 71.756 24.2405 72.2422 24.2405C72.8493 24.2405 73.285 24.1634 73.5713 24.0307L73.5745 24.0292C73.7223 23.9631 73.8119 23.8911 73.8636 23.8236C73.912 23.7605 73.9361 23.6905 73.9361 23.6023C73.9361 23.4634 73.8692 23.3117 73.6415 23.1497C73.4128 22.987 72.9105 22.795 72.0873 22.5867C71.124 22.3517 70.3616 22.114 69.8071 21.8718L69.8037 21.8703L69.8002 21.8687C69.2491 21.6085 68.8204 21.2766 68.5367 20.8622C68.2464 20.4382 68.114 19.8959 68.114 19.2603C68.114 18.3251 68.4927 17.5677 69.2314 17.0109C69.977 16.4453 70.991 16.1794 72.2422 16.1794C73.4642 16.1794 74.483 16.3981 75.2812 16.8562C76.088 17.3192 76.5384 17.9713 76.5384 18.8124C76.5384 19.2566 76.3718 19.6195 76.0208 19.8463L76.0168 19.8489L76.0127 19.8513C75.6903 20.0435 75.1974 20.1277 74.5802 20.1408L74.3863 20.145L74.3236 19.9535C74.1762 19.5039 73.9579 19.1965 73.6811 19.004L73.6763 19.0007L73.6717 18.9971C73.4119 18.799 73.0098 18.6806 72.4288 18.6806C72.0238 18.6806 71.676 18.7529 71.3797 18.8903C71.0642 19.0366 71.0335 19.1565 71.0335 19.2018C71.0335 19.3111 71.0819 19.4253 71.2952 19.5371C71.5509 19.6642 71.9962 19.8013 72.6507 19.9431L72.6532 19.9436C74.0957 20.2709 75.1717 20.7104 75.8431 21.2844C76.5444 21.8732 76.8929 22.6754 76.8929 23.6607C76.8929 24.2821 76.7043 24.8425 76.3315 25.3323C75.9588 25.822 75.4292 26.1918 74.7608 26.4516L74.7565 26.4533C74.087 26.6998 73.3094 26.8195 72.4288 26.8195C71.1348 26.8195 70.0814 26.5952 69.2919 26.1205L69.289 26.1187ZM80.9717 17.1276V12.2852H80.7062C79.8519 12.2852 79.1515 12.4737 78.6403 12.8884C78.1323 13.2975 77.8842 13.8761 77.8842 14.5872V26.8195H78.1497C79.0221 26.8195 79.7153 26.7024 80.196 26.4368L80.2013 26.4338C80.7184 26.1323 80.9717 25.6306 80.9717 24.9848V20.8764C80.9717 20.3311 81.136 19.8962 81.4568 19.5503C81.7741 19.2081 82.1874 19.031 82.7216 19.031C83.1523 19.031 83.4463 19.1614 83.6451 19.3886L83.6493 19.3933C83.8723 19.6366 83.9862 19.9363 83.9862 20.3117V26.8195H84.2517C85.1241 26.8195 85.8173 26.7024 86.298 26.4368L86.3033 26.4338C86.8204 26.1323 87.0737 25.6306 87.0737 24.9848V19.9028C87.0737 19.2121 86.9278 18.5818 86.631 18.0181C86.3353 17.4437 85.9228 16.9912 85.3957 16.6665C84.8767 16.3391 84.281 16.1794 83.6173 16.1794C82.9921 16.1794 82.2169 16.4924 81.6286 16.7799C81.3765 16.9032 81.1499 17.0263 80.9717 17.1276ZM92.5736 26.8195H92.3698C91.6902 26.8195 91.1052 26.6832 90.6304 26.3918C90.1495 26.0967 89.8307 25.668 89.6876 25.1155L89.687 25.1132L87.5451 16.5522L87.725 16.4479C87.875 16.361 88.0756 16.303 88.3071 16.2623C88.5447 16.2077 88.7733 16.1794 88.9922 16.1794C89.4407 16.1794 89.8362 16.2855 90.1624 16.5156C90.4976 16.7302 90.7211 17.0287 90.8005 17.4101L90.8013 17.4142L91.5255 21.1619L92.6567 17.253C92.7478 16.9361 92.925 16.6776 93.1829 16.4863C93.4492 16.2754 93.7755 16.1794 94.1425 16.1794C94.5201 16.1794 94.8562 16.2744 95.1337 16.4819C95.4073 16.6736 95.5904 16.9371 95.669 17.2654L95.6694 17.2671L96.603 21.2703L97.4846 17.4101L97.4852 17.4072C97.5653 17.0263 97.7893 16.7284 98.125 16.5141C98.4602 16.287 98.8535 16.1794 99.2929 16.1794C99.5225 16.1794 99.7515 16.2072 99.9796 16.2625C100.21 16.3032 100.41 16.3612 100.56 16.4479L100.74 16.552L98.6174 25.1104L98.617 25.1119C98.4832 25.6687 98.1266 26.0955 97.59 26.397L97.5853 26.3996C97.0562 26.6827 96.4472 26.8195 95.766 26.8195H95.561L94.0837 20.9277L92.5736 26.8195ZM102.545 26.4243L102.542 26.4226C101.979 26.1431 101.52 25.7424 101.17 25.2219L101.168 25.2191C100.81 24.6731 100.636 24.0259 100.636 23.2908C100.636 22.5519 100.824 21.9023 101.21 21.3559C101.587 20.8079 102.086 20.3944 102.699 20.1161L102.701 20.1152C103.321 19.8399 103.991 19.7037 104.708 19.7037C105.434 19.7037 106.104 19.9274 106.797 20.1071C106.817 19.3316 105.775 18.3294 103.39 18.685C103.39 16.1961 109.523 15.8406 109.732 20.0781V24.8095C109.732 25.4843 109.515 26.0243 109.039 26.3618C108.598 26.6832 107.933 26.8195 107.097 26.8195H106.832V26.1956C106.671 26.2675 106.475 26.359 106.283 26.4592L106.277 26.462C105.781 26.7068 105.14 26.8195 104.373 26.8195C103.728 26.8195 103.119 26.6888 102.549 26.4259L102.545 26.4243ZM106.31 22.4854C106.034 22.2828 105.634 22.1659 105.082 22.1659C104.599 22.1659 104.245 22.2794 103.994 22.4778C103.766 22.6671 103.649 22.9211 103.649 23.2713C103.649 23.6376 103.768 23.8868 103.989 24.0606C104.241 24.249 104.596 24.3573 105.082 24.3573C105.65 24.3573 106.058 24.2453 106.334 24.0533C106.592 23.8739 106.72 23.6253 106.72 23.2713C106.72 22.9375 106.591 22.6847 106.314 22.4881L106.31 22.4854ZM110.446 30.0275C110.093 29.5815 109.939 28.9497 109.939 28.178V27.8378L110.258 27.9068C110.605 27.9817 110.916 28.0178 111.193 28.0178C111.479 28.0178 111.689 27.9699 111.84 27.8913L111.846 27.8882L111.852 27.8853C111.992 27.8214 112.144 27.6883 112.301 27.4545L112.303 27.4508L112.306 27.4472C112.475 27.2118 112.671 26.8441 112.892 26.3322L112.892 26.3314L113.125 25.7792L109.506 16.5727L109.677 16.4452C109.819 16.3392 110.036 16.2805 110.275 16.2412L110.277 16.2409C110.532 16.2009 110.752 16.1794 110.932 16.1794C111.355 16.1794 111.75 16.2722 112.113 16.4608C112.498 16.6549 112.776 16.9437 112.916 17.3326L114.515 21.7755L116.379 17.3227C116.529 16.9345 116.793 16.6449 117.16 16.4607C117.523 16.2716 117.925 16.1794 118.359 16.1794C118.539 16.1794 118.753 16.2009 118.997 16.241C119.245 16.2799 119.47 16.338 119.614 16.4452L119.786 16.5729L115.544 27.3294C115.102 28.4503 114.599 29.3022 114.025 29.8597C113.449 30.4316 112.729 30.7137 111.884 30.7137C111.29 30.7137 110.8 30.4881 110.446 30.0275ZM64.656 15.6095C65.5358 15.6095 66.2489 14.9893 66.2489 14.2244C66.2489 13.4594 65.5358 12.8392 64.656 12.8392C63.7762 12.8392 63.063 13.4594 63.063 14.2244C63.063 14.9893 63.7762 15.6095 64.656 15.6095Z" fill="#F8842F"/>
</svg>
