<svg width="21" height="21" viewBox="0 0 21 21" fill="none" xmlns="http://www.w3.org/2000/svg">
<path d="M9.22964 13.2128L9.26965 13.2661L9.323 13.3061C9.44862 13.4003 9.59731 13.4499 9.75433 13.4499H11.3004C11.4564 13.4499 11.6283 13.3994 11.7649 13.2628C11.8847 13.1429 11.9689 12.9779 11.9689 12.7814V12.2101C11.9689 12.015 12.0263 11.8812 12.1271 11.7743L12.1272 11.7745L12.1356 11.7651C12.2929 11.5894 12.5525 11.366 12.9329 11.0943C13.3343 10.8076 13.6635 10.5401 13.912 10.2922C14.1942 10.0223 14.425 9.68332 14.6111 9.28768C14.8275 8.85243 14.9266 8.35392 14.9266 7.80711C14.9266 6.73655 14.5553 5.84193 13.795 5.17256C13.0402 4.49666 12.0518 4.18094 10.8803 4.18094C10.0928 4.18094 9.37623 4.33243 8.74229 4.64867C8.10832 4.95369 7.60388 5.39771 7.24179 5.97881C6.87689 6.55309 6.69953 7.20677 6.69953 7.92475V8.17683C6.69953 8.33385 6.7491 8.48254 6.84331 8.60816L6.86321 8.6347L6.88667 8.65816C7.00385 8.77534 7.16426 8.85837 7.35504 8.86198L8.8938 8.92888L8.90393 8.92932H8.91407C9.04367 8.92932 9.22795 8.90048 9.38075 8.76041C9.54125 8.61329 9.58254 8.42218 9.58254 8.27766V7.92475C9.58254 7.6149 9.68699 7.3851 9.89718 7.19743C10.1071 7.00999 10.4022 6.8959 10.8299 6.8959C11.2346 6.8959 11.5135 7.00409 11.7129 7.18131L11.7128 7.18139L11.7203 7.18777C11.9075 7.34725 12.0099 7.55881 12.0099 7.87433C12.0099 8.16921 11.9289 8.38913 11.785 8.56341C11.594 8.78214 11.291 9.04803 10.8593 9.3611C10.3258 9.74388 9.89838 10.124 9.59382 10.5039C9.24022 10.9329 9.08586 11.478 9.08586 12.0924V12.7814C9.08586 12.9385 9.13542 13.0871 9.22964 13.2128ZM9.2898 16.5902C9.61025 16.9106 10.0189 17.063 10.4769 17.063C10.9285 17.063 11.33 16.9075 11.6473 16.5902C11.9677 16.2697 12.1201 15.8611 12.1201 15.403C12.1201 14.9492 11.9702 14.5439 11.6474 14.2326C11.3361 13.9098 10.9307 13.7599 10.4769 13.7599C10.0209 13.7599 9.61382 13.9109 9.29401 14.2285C8.96826 14.5403 8.81698 14.9472 8.81698 15.403C8.81698 15.8611 8.96936 16.2697 9.2898 16.5902Z" stroke="#929292" stroke-width="0.931794"/>
<circle cx="10.5002" cy="10.5002" r="9.67285" stroke="#929292" stroke-width="1.65469"/>
</svg>
