<svg width="36" height="36" viewBox="0 0 36 36" fill="none" xmlns="http://www.w3.org/2000/svg">
<path fill-rule="evenodd" clip-rule="evenodd" d="M3.00299 18.0027C3.00299 26.2825 9.73784 33.0023 18.0027 33.0023C26.2825 33.0023 33.0023 26.2825 33.0023 18.0027C33.0023 9.73784 26.2825 3.00299 18.0027 3.00299C9.73784 3.00299 3.00299 9.73784 3.00299 18.0027ZM20.9734 12.0037C21.4083 12.4537 21.4083 13.1586 20.9584 13.5936L16.5335 18.0035L20.9584 22.4134C21.4083 22.8484 21.4083 23.5684 20.9734 24.0034C20.5234 24.4534 19.8184 24.4534 19.3834 24.0034L14.1485 18.7985C13.9385 18.5885 13.8185 18.3035 13.8185 18.0035C13.8185 17.7035 13.9385 17.4185 14.1485 17.2086L19.3834 12.0037C19.5934 11.7787 19.8784 11.6737 20.1634 11.6737C20.4634 11.6737 20.7484 11.7787 20.9734 12.0037Z" fill="white"/>
</svg>
