<svg width="20" height="20" viewBox="0 0 20 20" fill="none" xmlns="http://www.w3.org/2000/svg">
<path d="M17.5003 11.666C17.2793 11.666 17.0673 11.7538 16.9111 11.9101C16.7548 12.0664 16.667 12.2783 16.667 12.4993V15.8327C16.667 16.0537 16.5792 16.2657 16.4229 16.4219C16.2666 16.5782 16.0547 16.666 15.8337 16.666H4.16699C3.94598 16.666 3.73402 16.5782 3.57774 16.4219C3.42146 16.2657 3.33366 16.0537 3.33366 15.8327V12.4993C3.33366 12.2783 3.24586 12.0664 3.08958 11.9101C2.9333 11.7538 2.72134 11.666 2.50033 11.666C2.27931 11.666 2.06735 11.7538 1.91107 11.9101C1.75479 12.0664 1.66699 12.2783 1.66699 12.4993V15.8327C1.66699 16.4957 1.93038 17.1316 2.39923 17.6004C2.86807 18.0693 3.50395 18.3327 4.16699 18.3327H15.8337C16.4967 18.3327 17.1326 18.0693 17.6014 17.6004C18.0703 17.1316 18.3337 16.4957 18.3337 15.8327V12.4993C18.3337 12.2783 18.2459 12.0664 18.0896 11.9101C17.9333 11.7538 17.7213 11.666 17.5003 11.666ZM9.40866 13.091C9.48791 13.1669 9.58137 13.2264 9.68366 13.266C9.78341 13.3101 9.89127 13.3329 10.0003 13.3329C10.1094 13.3329 10.2172 13.3101 10.317 13.266C10.4193 13.2264 10.5127 13.1669 10.592 13.091L13.9253 9.75768C14.0822 9.60076 14.1704 9.38793 14.1704 9.16602C14.1704 8.9441 14.0822 8.73127 13.9253 8.57435C13.7684 8.41743 13.5556 8.32927 13.3337 8.32927C13.1117 8.32927 12.8989 8.41743 12.742 8.57435L10.8337 10.491V2.49935C10.8337 2.27834 10.7459 2.06637 10.5896 1.91009C10.4333 1.75381 10.2213 1.66602 10.0003 1.66602C9.77931 1.66602 9.56735 1.75381 9.41107 1.91009C9.25479 2.06637 9.16699 2.27834 9.16699 2.49935V10.491L7.25866 8.57435C7.18096 8.49665 7.08872 8.43502 6.9872 8.39297C6.88568 8.35092 6.77687 8.32927 6.66699 8.32927C6.55711 8.32927 6.4483 8.35092 6.34678 8.39297C6.24527 8.43502 6.15302 8.49665 6.07533 8.57435C5.99763 8.65205 5.93599 8.74429 5.89394 8.84581C5.85189 8.94733 5.83025 9.05613 5.83025 9.16602C5.83025 9.2759 5.85189 9.38471 5.89394 9.48622C5.93599 9.58774 5.99763 9.67998 6.07533 9.75768L9.40866 13.091Z" fill="#F8842F"/>
</svg>
