<svg width="24" height="24" viewBox="0 0 24 24" fill="none" xmlns="http://www.w3.org/2000/svg">
<path d="M13.2335 7.4043L4.65012 15.9883C4.60694 16.0317 4.57576 16.0863 4.56091 16.1451L3.60952 19.9638C3.58106 20.0787 3.61484 20.201 3.69873 20.2849C3.76221 20.3484 3.8487 20.3835 3.93717 20.3835C3.96426 20.3835 3.99198 20.3802 4.01895 20.3734L7.83763 19.4218C7.89715 19.407 7.95122 19.3759 7.9944 19.3328L16.5786 10.7493L13.2335 7.4043Z" fill="#2873FF"/>
<path d="M18.7047 6.23497L17.7493 5.27949C17.1107 4.6409 15.9977 4.64152 15.3599 5.27949L14.1895 6.44989L17.5343 9.79479L18.7047 8.62439C19.0237 8.30553 19.1994 7.88112 19.1994 7.42974C19.1994 6.97836 19.0237 6.55395 18.7047 6.23497Z" fill="#2873FF"/>
</svg>
