<svg width="27" height="27" viewBox="0 0 27 27" fill="none" xmlns="http://www.w3.org/2000/svg">
<path d="M19.1261 23.0632H7.87591C4.50086 23.0632 2.25083 21.3757 2.25083 17.4382V9.56304C2.25083 5.62548 4.50086 3.93796 7.87591 3.93796H19.1261C22.5011 3.93796 24.7512 5.62548 24.7512 9.56304V17.4382C24.7512 21.3757 22.5011 23.0632 19.1261 23.0632Z" stroke="#929292" stroke-width="1.65469" stroke-miterlimit="10" stroke-linecap="round" stroke-linejoin="round"/>
<path d="M13.4998 16.8749C15.3638 16.8749 16.8749 15.3638 16.8749 13.4998C16.8749 11.6358 15.3638 10.1248 13.4998 10.1248C11.6358 10.1248 10.1248 11.6358 10.1248 13.4998C10.1248 15.3638 11.6358 16.8749 13.4998 16.8749Z" stroke="#929292" stroke-width="1.65469" stroke-miterlimit="10" stroke-linecap="round" stroke-linejoin="round"/>
<path d="M6.18679 10.6885V16.3135" stroke="#929292" stroke-width="1.65469" stroke-miterlimit="10" stroke-linecap="round" stroke-linejoin="round"/>
<path d="M20.8132 10.6885V16.3135" stroke="#929292" stroke-width="1.65469" stroke-miterlimit="10" stroke-linecap="round" stroke-linejoin="round"/>
</svg>
