<svg width="42" height="42" viewBox="0 0 42 42" fill="none" xmlns="http://www.w3.org/2000/svg">
<path d="M41.9999 21.5187C41.7923 22.1061 41.5774 22.6879 41.1671 23.176C40.7298 23.6954 40.2023 23.9711 39.4983 23.9653C36.8728 23.9456 34.2522 23.953 31.6291 23.9538C31.1139 23.9538 30.8177 24.1737 30.7635 24.5758C30.6946 25.0779 31.0327 25.4373 31.5988 25.4414C32.5965 25.4487 33.5933 25.4455 34.591 25.4463H38.6483C39.8946 25.4463 40.5099 26.2725 40.1637 27.4786C39.8683 28.5058 38.9822 29.1819 37.8352 29.1909C35.7725 29.2073 33.7099 29.1909 31.6472 29.1909C31.1475 29.1909 30.8513 29.3903 30.7709 29.7579C30.6593 30.2674 31.0089 30.6752 31.5816 30.6784C32.9476 30.685 34.3137 30.6784 35.6798 30.6784C36.2262 30.6784 36.7751 30.7121 37.3208 30.6719C38.4456 30.5898 39.2538 31.3332 38.9199 32.737C38.6737 33.7733 37.8163 34.4099 36.6898 34.4173C35.2688 34.4255 33.8485 34.4173 32.4275 34.4173C32.1936 34.4173 31.9631 34.4173 31.7711 34.5863C31.5176 34.8095 31.4339 35.0893 31.5422 35.3986C31.6636 35.7424 31.9344 35.9073 32.3019 35.9073H35.0095C35.638 35.9073 36.2673 35.9254 36.8966 35.8917C37.1723 35.8778 37.2994 35.9894 37.3962 36.2051C37.5464 36.5407 37.4783 36.8812 37.3757 37.2045C37.0779 38.1259 36.4511 38.7191 35.4886 38.8602C34.0019 39.0776 32.4997 39.1523 31.0023 39.2565C25.0128 39.6741 19.0177 39.6602 13.02 39.6569C12.6639 39.6569 12.54 39.5387 12.4457 39.2171C11.1373 34.8276 9.81851 30.4408 8.48934 26.0567C8.41304 25.8032 8.43847 25.653 8.65344 25.4734C11.3318 23.2641 13.4308 20.4348 14.7684 17.2309C15.2763 16.0297 16.1952 15.1912 17.4711 14.7842C17.7664 14.6899 17.9125 14.7022 18.0126 15.064C18.3178 16.1544 18.582 17.2489 18.6821 18.3795C18.7009 18.5855 18.7067 18.7118 18.4614 18.7996C18.1151 18.9235 17.9642 19.2214 18.0273 19.5865C18.0938 19.9704 18.3481 20.1731 18.7338 20.2076C18.8552 20.2182 18.9799 20.2076 19.1022 20.2076H40.9054C41.5667 20.2076 41.7677 20.3438 41.9999 20.946V21.5187Z" fill="#F8842F"/>
<path d="M0.0252345 25.5269C0.252505 25.0773 0.599565 24.9353 1.10334 25.0297C2.95268 25.3775 4.80449 25.7115 6.65876 26.0315C6.9131 26.0758 6.97464 26.2243 7.03782 26.4343C8.33799 30.7834 9.645 35.1319 10.9589 39.4798C11.0409 39.7555 11.0097 39.8531 10.725 39.9098C7.51642 40.5432 4.30892 41.1834 1.10252 41.8305C1.06888 41.837 1.04016 41.8699 1.00898 41.8912H0.516698C0.394297 41.869 0.281587 41.81 0.193622 41.722C0.105658 41.634 0.046627 41.5213 0.0244141 41.3989L0.0252345 25.5269Z" fill="#F8842F"/>
<path d="M0.0249824 41.4004L0.517266 41.8927C0.0966371 41.9846 -0.0674575 41.8205 0.0249824 41.4004Z" fill="#F5F5F5"/>
<path d="M28.8863 3.01085C29.9242 3.01085 30.9621 3.01578 32 3.01085C32.2281 3.01085 32.3544 3.04531 32.4431 3.29966C32.713 4.06598 33.2438 4.6198 33.9806 4.96604C34.1349 5.03906 34.2095 5.08665 34.1693 5.29423C33.4084 9.06483 33.6265 12.9675 34.8027 16.6299C34.9947 17.2362 35.0185 17.8606 35.0948 18.4825C35.1161 18.6589 35.0669 18.7426 34.8807 18.7221C34.8405 18.718 34.7986 18.7221 34.7576 18.7221C34.4294 18.7221 34.0618 18.8107 33.7853 18.6909C33.4892 18.5629 33.554 18.1289 33.4366 17.8368C33.0904 16.9464 32.4692 16.1896 31.6632 15.6766C30.8573 15.1635 29.9088 14.921 28.9555 14.9841C28.0022 15.0472 27.094 15.4128 26.3628 16.0277C25.6316 16.6425 25.1155 17.4746 24.8898 18.4029C24.8274 18.6597 24.7446 18.7451 24.4918 18.727C24.219 18.7014 23.9443 18.7014 23.6714 18.727C23.312 18.7672 23.1709 18.645 23.1594 18.2766C23.1052 16.5183 22.5728 14.8536 22.1502 13.1642C21.5092 10.6377 21.5853 7.9825 22.3701 5.49689C22.4284 5.30736 22.4989 5.25075 22.6983 5.23105C23.9758 5.12029 24.8529 4.45407 25.3181 3.26684C25.4001 3.06336 25.4822 3.00347 25.693 3.00593C26.7555 3.0166 27.8205 3.01085 28.8863 3.01085Z" fill="#F8842F"/>
<path d="M29.2079 0.0090252C32.0796 0.0090252 34.9512 0.0164095 37.8179 0C38.1707 0 38.2487 0.0918929 38.2233 0.429107C38.1273 1.66884 37.9435 2.89053 37.5792 4.08103C36.4133 7.89049 36.4404 11.6983 37.6046 15.5037C37.8832 16.4296 38.0663 17.3817 38.1511 18.3449C38.1765 18.6132 38.1396 18.7486 37.8229 18.7207C37.4307 18.6871 36.9203 18.8405 36.6742 18.6461C36.4281 18.4516 36.5454 17.9117 36.5101 17.5228C36.4141 16.5539 36.0646 15.6456 35.8332 14.7094C35.0242 11.4341 35.0292 8.15632 35.7955 4.87607C35.9637 4.15816 35.7815 3.87345 35.0456 3.73972C34.2891 3.60188 33.8313 3.10549 33.7402 2.3244C33.6696 1.72135 33.4497 1.51049 32.8377 1.50967C30.1875 1.50475 27.5371 1.50475 24.8865 1.50967C24.3039 1.50967 24.0726 1.7312 23.9954 2.30225C23.851 3.36886 23.17 3.87345 22.1141 3.69705C21.6637 3.61993 21.315 3.7791 21.1861 4.16964C20.1195 7.40231 19.8824 10.6702 20.8136 13.9768C21.2124 15.3937 21.5783 16.8131 21.6809 18.2908C21.708 18.6838 21.5824 18.7724 21.2419 18.7207C21.1736 18.7158 21.1051 18.7158 21.0368 18.7207C20.2344 18.7207 20.2106 18.7207 20.1392 17.9544C20.0243 16.7237 19.6912 15.5504 19.3696 14.3681C18.4999 11.1773 18.5114 7.98976 19.4517 4.81535C19.8824 3.35902 20.1819 1.88298 20.2221 0.361828C20.2295 0.0730221 20.3246 0 20.6036 0C23.472 0.0131276 26.3412 0.0090252 29.2079 0.0090252Z" fill="#F8842F"/>
<path d="M26.3877 18.6909C26.7356 16.8186 29.0871 15.866 30.7961 16.8982C31.3721 17.2452 31.8148 17.7758 32.0531 18.4046C32.1351 18.6031 32.1458 18.7221 31.8553 18.7205C30.07 18.7098 28.2838 18.7147 26.4985 18.7131C26.4609 18.7097 26.4237 18.7022 26.3877 18.6909Z" fill="#F8842F"/>
<path d="M16.55 38.136C16.1545 38.136 15.7591 38.1418 15.3644 38.136C14.3626 38.118 13.5487 37.5338 13.2386 36.587C12.9555 35.723 12.6921 34.8525 12.4312 33.982C12.2819 33.4856 12.4723 33.0942 12.9005 32.9621C13.3288 32.83 13.7103 33.0442 13.8654 33.5364C14.123 34.3512 14.3667 35.1708 14.6211 35.9872C14.7753 36.4844 14.9952 36.6485 15.5129 36.6493C16.3039 36.6493 17.0948 36.6419 17.8849 36.6403C18.4207 36.6403 18.7357 36.8979 18.7489 37.3467C18.7628 37.8111 18.4379 38.1155 17.9005 38.1253C17.4501 38.1336 16.998 38.1253 16.55 38.1253V38.136Z" fill="#FEFEFE"/>
<path d="M21.2394 38.0703C21.0474 38.0703 20.8529 38.0949 20.6741 38.0096C20.3565 37.8586 20.1998 37.5994 20.2368 37.2515C20.2753 36.8823 20.5067 36.6591 20.8636 36.5951C21.1328 36.5501 21.4047 36.5227 21.6775 36.5131C22.1009 36.4901 22.4422 36.7658 22.4914 37.1538C22.5431 37.5641 22.3199 37.8849 21.8859 37.9842C21.675 38.0301 21.4552 38.0424 21.2394 38.0703Z" fill="#FDFDFD"/>
<path d="M12.967 30.5639C12.9793 30.9938 12.7283 31.3211 12.3927 31.404C12.2252 31.4454 12.0485 31.426 11.894 31.3492C11.7395 31.2724 11.6173 31.1433 11.5493 30.9848C11.4261 30.6832 11.3311 30.3709 11.2654 30.0519C11.2366 29.874 11.2737 29.6918 11.3699 29.5395C11.4661 29.3872 11.6147 29.2753 11.7876 29.2248C11.9606 29.1744 12.146 29.1889 12.309 29.2657C12.4719 29.3425 12.6012 29.4762 12.6725 29.6416C12.8029 29.9641 12.8874 30.3079 12.967 30.5639Z" fill="#FDFDFD"/>
<path d="M24.7598 9.73844C24.7583 9.14568 24.9328 8.56583 25.2611 8.07231C25.5894 7.57879 26.0568 7.1938 26.6041 6.9661C27.1514 6.7384 27.7539 6.67823 28.3354 6.79321C28.9169 6.9082 29.4512 7.19316 29.8706 7.61201C30.2901 8.03086 30.5758 8.56477 30.6915 9.1461C30.8073 9.72744 30.748 10.3301 30.521 10.8776C30.2941 11.4252 29.9097 11.8932 29.4167 12.2222C28.9236 12.5512 28.344 12.7264 27.7512 12.7258C27.3584 12.7268 26.9694 12.6502 26.6062 12.5004C26.2431 12.3507 25.9132 12.1308 25.6352 11.8532C25.3573 11.5757 25.1369 11.246 24.9867 10.8831C24.8365 10.5202 24.7593 10.1312 24.7598 9.73844Z" fill="#FEFEFE"/>
<path d="M27.7413 11.223C27.4481 11.2211 27.162 11.1325 26.919 10.9685C26.676 10.8045 26.4869 10.5723 26.3754 10.3012C26.2639 10.03 26.2351 9.73195 26.2924 9.44443C26.3498 9.15692 26.4909 8.89277 26.6979 8.68517C26.9049 8.47757 27.1687 8.33579 27.4561 8.27762C27.7434 8.21945 28.0416 8.2475 28.313 8.35823C28.5845 8.46897 28.8172 8.65746 28.9819 8.90003C29.1466 9.14259 29.2359 9.42841 29.2386 9.72158C29.242 9.91933 29.2055 10.1157 29.1315 10.2991C29.0575 10.4825 28.9474 10.6492 28.8077 10.7892C28.6681 10.9292 28.5017 11.0398 28.3185 11.1143C28.1353 11.1889 27.939 11.2258 27.7413 11.223Z" fill="#F8842F"/>
</svg>
