<svg width="33" height="32" viewBox="0 0 33 32" fill="none" xmlns="http://www.w3.org/2000/svg">
<path d="M23.693 15.0073L14.7905 7.39836C14.6443 7.27213 14.4703 7.17194 14.2786 7.10357C14.087 7.0352 13.8814 7 13.6737 7C13.4661 7 13.2605 7.0352 13.0688 7.10357C12.8772 7.17194 12.7032 7.27213 12.557 7.39836C12.264 7.65068 12.0996 7.99201 12.0996 8.3478C12.0996 8.70358 12.264 9.04491 12.557 9.29724L20.3427 16.0308L12.557 22.6971C12.264 22.9494 12.0996 23.2908 12.0996 23.6465C12.0996 24.0023 12.264 24.3437 12.557 24.596C12.7027 24.7232 12.8764 24.8245 13.0681 24.8938C13.2598 24.9632 13.4656 24.9993 13.6737 25C13.8818 24.9993 14.0877 24.9632 14.2794 24.8938C14.4711 24.8245 14.6448 24.7232 14.7905 24.596L23.693 16.987C23.8526 16.8609 23.98 16.7078 24.0672 16.5375C24.1543 16.3671 24.1993 16.1832 24.1993 15.9972C24.1993 15.8112 24.1543 15.6272 24.0672 15.4569C23.98 15.2865 23.8526 15.1334 23.693 15.0073Z" fill="white"/>
</svg>
