<svg width="33" height="42" viewBox="0 0 33 42" fill="none" xmlns="http://www.w3.org/2000/svg">
<g clip-path="url(#clip0_787_2688)">
<path d="M32.0525 13.129C30.1896 3.69617 20.6361 -2.18053 11.3274 0.759932C3.04056 3.38372 -1.56521 11.7212 0.48518 20.1626C1.26041 23.3547 2.71544 26.2428 4.46857 28.9882C7.32121 33.458 10.792 37.4102 14.6259 41.0583C14.9975 41.4113 15.3615 41.777 15.8344 41.9999H16.4086C16.7126 41.8915 16.9905 41.7206 17.2244 41.4983C20.2108 38.7479 22.9485 35.7392 25.4057 32.5072C27.6537 29.5414 29.628 26.4126 30.9792 22.9232C32.2045 19.7547 32.7188 16.5001 32.0525 13.129ZM13.5171 16.0272C13.56 16.1728 13.5644 16.327 13.5298 16.4748C13.3719 17.0169 13.6835 17.2255 14.1032 17.4476C15.1622 18.0092 16.2009 18.6113 17.2413 19.2075C17.4279 19.3148 17.547 19.3232 17.7361 19.183C19.1819 18.1097 21.0211 18.1139 22.4576 19.1712C23.1275 19.6653 23.621 20.3615 23.8653 21.1573C24.1097 21.9531 24.0919 22.8063 23.8147 23.5912C23.5414 24.3919 23.0172 25.0832 22.3198 25.5623C21.6224 26.0413 20.7891 26.2827 19.9436 26.2504C17.748 26.1905 15.9999 24.2304 16.1857 21.996C16.2119 21.6793 16.1012 21.5644 15.8707 21.4369C14.7391 20.8081 13.6106 20.1733 12.4852 19.5326C12.2901 19.4203 12.1592 19.3992 11.954 19.552C11.2699 20.0738 10.4321 20.3541 9.57178 20.3492C8.71142 20.3443 7.87694 20.0545 7.19876 19.525C6.52716 19.0099 6.03961 18.292 5.80852 17.4778C5.57743 16.6635 5.61512 15.7965 5.916 15.0054C6.50714 13.4228 8.14542 12.3749 9.88926 12.4838C10.658 12.5275 11.3936 12.8117 11.992 13.2962C12.144 13.4178 12.2453 13.4212 12.4142 13.3257C13.5965 12.6502 14.7788 11.9746 15.9822 11.3277C16.3563 11.1276 16.0928 10.8497 16.162 10.6521C16.119 8.52235 17.7142 6.7422 19.7815 6.5809C21.9062 6.41201 23.7648 7.96584 24.0157 10.1133C24.2538 12.1511 22.8199 14.014 20.734 14.3813C19.6362 14.5747 18.6456 14.3205 17.7598 13.6644C17.5706 13.5242 17.4439 13.4955 17.2311 13.6188C16.0742 14.287 14.9108 14.9432 13.7409 15.5872C13.5484 15.6928 13.4555 15.7916 13.5171 16.0272Z" fill="#F8842F"/>
<path d="M20.0788 11.8181C20.3374 11.8221 20.5913 11.7497 20.8088 11.6098C21.0263 11.4699 21.1975 11.2689 21.3011 11.032C21.4046 10.7951 21.4358 10.5328 21.3907 10.2782C21.3457 10.0236 21.2264 9.78801 21.0478 9.60102C20.8692 9.41403 20.6394 9.284 20.3871 9.22727C20.1348 9.17054 19.8714 9.18964 19.63 9.28217C19.3886 9.37471 19.1799 9.53654 19.0301 9.74734C18.8804 9.95814 18.7963 10.2085 18.7885 10.4669C18.7842 10.6404 18.8142 10.8131 18.8768 10.975C18.9394 11.1369 19.0333 11.2848 19.1532 11.4103C19.2731 11.5359 19.4166 11.6365 19.5754 11.7065C19.7342 11.7764 19.9053 11.8144 20.0788 11.8181Z" fill="#F8842F"/>
<path d="M9.64222 15.1004C9.38191 15.0915 9.12486 15.1604 8.90382 15.2981C8.68279 15.4359 8.50779 15.6364 8.40114 15.874C8.29448 16.1117 8.26099 16.3757 8.30494 16.6324C8.34889 16.8891 8.46829 17.1269 8.64792 17.3155C8.82755 17.5042 9.05927 17.635 9.31355 17.6914C9.56783 17.7478 9.83314 17.7273 10.0757 17.6323C10.3182 17.5374 10.527 17.3723 10.6754 17.1583C10.8238 16.9442 10.9051 16.6909 10.9089 16.4304C10.9133 16.0872 10.7833 15.7559 10.5466 15.5073C10.3098 15.2588 9.98525 15.1127 9.64222 15.1004Z" fill="#F8842F"/>
<path d="M20.0568 23.628C20.317 23.6369 20.5739 23.5681 20.7949 23.4305C21.0158 23.2928 21.1908 23.0925 21.2975 22.8551C21.4043 22.6177 21.438 22.3539 21.3943 22.0972C21.3506 21.8406 21.2315 21.6028 21.0522 21.4141C20.8729 21.2253 20.6415 21.0942 20.3875 21.0374C20.1334 20.9807 19.8682 21.0008 19.6257 21.0952C19.3831 21.1896 19.1741 21.3541 19.0253 21.5677C18.8765 21.7813 18.7946 22.0343 18.7901 22.2946C18.7863 22.638 18.9165 22.9693 19.153 23.2183C19.3895 23.4672 19.7137 23.6142 20.0568 23.628Z" fill="#F8842F"/>
</g>
<defs>
<clipPath id="clip0_787_2688">
<rect width="32.346" height="42" fill="white"/>
</clipPath>
</defs>
</svg>
