<svg width="42" height="42" viewBox="0 0 42 42" fill="none" xmlns="http://www.w3.org/2000/svg">
<g clip-path="url(#clip0_787_2674)">
<path d="M12.84 39.9651C12.9489 39.8624 13.0456 39.7463 13.1484 39.6343C15.6415 36.8449 17.9116 33.8982 19.4928 30.482C20.6237 28.0285 21.3167 25.4898 20.855 22.7476C20.413 20.1184 19.1875 17.9321 17.0922 16.2913C14.2803 14.0916 11.0798 13.4689 7.66347 14.4121C3.89445 15.4519 1.48047 17.9434 0.373201 21.6986C0.216929 22.2277 0.235435 22.7938 0 23.3014V25.5155C0.091501 26.0775 0.0822481 26.6456 0.230295 27.2066C0.812095 29.3472 1.70768 31.3899 2.88794 33.2684C4.75805 36.2931 7.01165 39.0107 9.51097 41.533C9.74949 41.7744 10.0034 41.9522 10.3396 42.0025H11.0007C11.0788 41.9296 11.1744 41.9727 11.2618 41.9604H11.6453C11.7317 41.9717 11.8273 41.9306 11.9034 42.0025H12.1501C12.22 41.8505 12.367 41.9409 12.475 41.8998C12.6274 41.8579 12.7659 41.7761 12.8762 41.6629C12.9864 41.5496 13.0644 41.409 13.1021 41.2556C13.1854 40.9381 13.1114 40.6278 12.8461 40.446C12.5562 40.2518 12.6642 40.1316 12.84 39.9651Z" fill="#F8842F"/>
<path d="M41.9957 6.8668C41.8518 3.88728 40.397 1.7451 37.6694 0.558427C36.3972 0.0116544 34.9889 -0.136604 33.6306 0.133232C32.2722 0.403068 31.0278 1.07831 30.0615 2.06977C28.5944 3.56775 27.8614 5.37293 28.0577 7.48839C28.1729 8.75726 28.7044 9.90489 29.2657 11.0268C30.4995 13.4988 32.0159 15.7992 33.6609 18.0133C33.9909 18.4592 34.2551 18.8907 34.1225 19.3798C34.1225 19.6582 34.1225 19.8493 34.1225 20.0404C34.1379 20.6034 34.4854 20.9928 34.9758 21.0031C35.1005 21.008 35.2248 20.9853 35.3397 20.9366C35.4546 20.8879 35.5573 20.8145 35.6405 20.7215C35.7237 20.6286 35.7853 20.5184 35.8209 20.3989C35.8566 20.2794 35.8653 20.1534 35.8466 20.0301C35.7346 19.0305 36.0574 18.2239 36.7205 17.5109C36.8436 17.3647 36.9567 17.2102 37.0587 17.0486C38.5865 14.8684 40.0341 12.6389 41.129 10.2028C41.606 9.14357 42.0492 8.05347 41.9957 6.8668Z" fill="#F8842F"/>
<path d="M26.7181 25.2735C25.436 26.0235 24.6732 27.2081 24.0563 28.5058C23.9896 28.6413 23.9673 28.7945 23.9926 28.9434C24.0135 29.1211 24.0889 29.288 24.2083 29.4213C24.3277 29.5546 24.4854 29.6479 24.6598 29.6883C25.0505 29.7911 25.4309 29.6195 25.6416 29.2013C26.1557 28.1873 26.7725 27.2759 27.7544 26.6513C27.857 26.5854 27.9406 26.4938 27.9969 26.3857C28.0532 26.2776 28.0801 26.1566 28.0751 26.0348C28.0731 25.2827 27.3545 24.9005 26.7181 25.2735Z" fill="#F8842F"/>
<path d="M34.347 22.9335C33.9511 22.8564 33.653 23.0414 33.4289 23.3445C33.031 23.8787 32.4748 24.1417 31.8518 24.2876C31.495 24.3709 31.1259 24.4007 30.7671 24.4767C30.2613 24.5794 29.9724 24.9729 30.0259 25.4414C30.0793 25.9099 30.4669 26.213 30.9779 26.1976C31.3863 26.1737 31.7915 26.1108 32.188 26.0096C33.2469 25.7527 34.1814 25.2842 34.8384 24.375C35.264 23.7893 35.0121 23.065 34.347 22.9335Z" fill="#F8842F"/>
<path d="M23.6679 31.5181C23.2175 31.4009 22.8084 31.6095 22.5955 32.1181C22.1421 33.1979 21.6888 34.2757 21.1007 35.2918C20.819 35.7798 20.9783 36.2853 21.4173 36.5329C21.8563 36.7805 22.3426 36.6151 22.6326 36.1271C23.2803 35.0503 23.7635 33.8955 24.2251 32.7315C24.2582 32.631 24.2826 32.5279 24.2981 32.4232C24.3073 31.9763 24.0411 31.6157 23.6679 31.5181Z" fill="#F8842F"/>
<path d="M18.9357 37.8807C17.9412 38.5703 16.8643 39.1329 15.7301 39.5554C15.6223 39.5915 15.5232 39.6496 15.439 39.7259C15.3547 39.8022 15.2873 39.8951 15.2408 39.9988C15.1943 40.1025 15.1699 40.2147 15.169 40.3283C15.1681 40.4419 15.1908 40.5545 15.2356 40.6589C15.4073 41.1099 15.872 41.3288 16.3788 41.1592C17.6227 40.7539 18.7895 40.1423 19.8302 39.3499C19.9468 39.2677 20.0435 39.1605 20.1133 39.036C20.183 38.9116 20.224 38.7731 20.2332 38.6308C20.2383 37.9527 19.5043 37.5006 18.9357 37.8807Z" fill="#F8842F"/>
<path d="M10.5541 19.2663C9.85877 19.2548 9.16808 19.3815 8.52216 19.639C7.87623 19.8965 7.28794 20.2797 6.79146 20.7664C6.29498 21.253 5.9002 21.8334 5.63005 22.4737C5.3599 23.1141 5.21977 23.8018 5.21779 24.4967C5.21582 25.1917 5.35204 25.8801 5.61854 26.522C5.88505 27.164 6.27652 27.7466 6.77023 28.236C7.26394 28.7254 7.85004 29.112 8.49449 29.3731C9.13895 29.6343 9.8289 29.7649 10.5243 29.7574C13.3875 29.7769 15.7676 27.4169 15.7902 24.5422C15.7936 23.852 15.6608 23.168 15.3994 22.5292C15.138 21.8904 14.7531 21.3093 14.2668 20.8193C13.7804 20.3293 13.2022 19.9399 12.5651 19.6734C11.9281 19.407 11.2447 19.2686 10.5541 19.2663Z" fill="#FEFEFE"/>
<path d="M35.0525 5.26367C34.707 5.26367 34.3693 5.36598 34.082 5.55768C33.7947 5.74937 33.5707 6.02185 33.4382 6.34071C33.3058 6.65956 33.2709 7.01048 33.3379 7.34915C33.4049 7.68782 33.5709 7.99905 33.8148 8.24352C34.0587 8.48799 34.3696 8.65475 34.7083 8.72272C35.047 8.79069 35.3983 8.75683 35.7177 8.62542C36.0372 8.49401 36.3105 8.27095 36.5032 7.98439C36.6958 7.69784 36.7992 7.36065 36.8002 7.01543C36.7965 6.55288 36.6113 6.11025 36.2845 5.78269C35.9577 5.45513 35.5153 5.26877 35.0525 5.26367Z" fill="#FEFEFE"/>
</g>
<defs>
<clipPath id="clip0_787_2674">
<rect width="42" height="42" fill="white"/>
</clipPath>
</defs>
</svg>
