<svg width="22" height="23" viewBox="0 0 22 23" fill="none" xmlns="http://www.w3.org/2000/svg">
<path fill-rule="evenodd" clip-rule="evenodd" d="M20.7424 6.77008L20.0358 5.57233C19.4379 4.55885 18.1131 4.20922 17.074 4.79074V4.79074C16.5794 5.07533 15.9893 5.15607 15.4337 5.01516C14.8781 4.87425 14.4027 4.52327 14.1123 4.03961C13.9255 3.73219 13.8251 3.38203 13.8213 3.02456V3.02456C13.8382 2.45144 13.6168 1.89607 13.2076 1.48495C12.7985 1.07383 12.2364 0.841978 11.6494 0.842215H10.2257C9.65058 0.842208 9.0992 1.06604 8.69353 1.46418C8.28786 1.86233 8.06135 2.40195 8.06412 2.96366V2.96366C8.04707 4.12339 7.07964 5.05478 5.89218 5.05466C5.5262 5.05094 5.16771 4.9529 4.85297 4.77044V4.77044C3.81394 4.18892 2.48907 4.53855 1.89123 5.55203L1.13261 6.77008C0.535499 7.7823 0.888576 9.07556 1.92241 9.66297V9.66297C2.59442 10.0419 3.00839 10.7423 3.00839 11.5002C3.00839 12.2581 2.59442 12.9585 1.92241 13.3374V13.3374C0.889889 13.9209 0.536427 15.211 1.13261 16.2202V16.2202L1.84966 17.4281C2.12977 17.9217 2.59975 18.286 3.1556 18.4404C3.71145 18.5947 4.30733 18.5262 4.8114 18.2503V18.2503C5.30693 17.9678 5.89742 17.8905 6.45164 18.0353C7.00585 18.1802 7.47786 18.5353 7.76275 19.0217C7.94955 19.3291 8.04992 19.6793 8.05372 20.0367V20.0367C8.05372 21.2084 9.02614 22.1582 10.2257 22.1582H11.6494C12.8449 22.1582 13.8156 21.2146 13.8213 20.0469V20.0469C13.8185 19.4834 14.0465 18.9422 14.4544 18.5438C14.8623 18.1454 15.4164 17.9227 15.9933 17.9254C16.3584 17.935 16.7154 18.0326 17.0325 18.2097V18.2097C18.0688 18.7929 19.3928 18.448 19.9942 17.4382V17.4382L20.7424 16.2202C21.032 15.7346 21.1115 15.1563 20.9633 14.6133C20.8151 14.0704 20.4513 13.6075 19.9526 13.3273V13.3273C19.4539 13.0471 19.0902 12.5842 18.942 12.0412C18.7937 11.4983 18.8732 10.92 19.1628 10.4344C19.3512 10.1132 19.6238 9.84692 19.9526 9.66297V9.66297C20.9803 9.07588 21.3325 7.79017 20.7424 6.78023V6.78023V6.77008Z" stroke="#929292" stroke-width="1.65469" stroke-linecap="round" stroke-linejoin="round"/>
<ellipse cx="10.9443" cy="11.5004" rx="2.99291" ry="2.92333" stroke="#929292" stroke-width="1.65469" stroke-linecap="round" stroke-linejoin="round"/>
</svg>
