<svg width="19" height="22" viewBox="0 0 19 22" fill="none" xmlns="http://www.w3.org/2000/svg">
<path fill-rule="evenodd" clip-rule="evenodd" d="M9.30735 7.33307C8.21868 7.33307 7.33307 8.21868 7.33307 9.30848C7.33307 10.3972 8.21868 11.2816 9.30735 11.2816C10.396 11.2816 11.2816 10.3972 11.2816 9.30848C11.2816 8.21868 10.396 7.33307 9.30735 7.33307ZM9.30735 12.9739C7.28568 12.9739 5.64082 11.3302 5.64082 9.30848C5.64082 7.28568 7.28568 5.64082 9.30735 5.64082C11.329 5.64082 12.9739 7.28568 12.9739 9.30848C12.9739 11.3302 11.329 12.9739 9.30735 12.9739Z" fill="#929292"/>
<mask id="mask0_2171_2462" style="mask-type:luminance" maskUnits="userSpaceOnUse" x="0" y="0" width="19" height="22">
<path fill-rule="evenodd" clip-rule="evenodd" d="M0 0H18.6141V21.9992H0V0Z" fill="white"/>
</mask>
<g mask="url(#mask0_2171_2462)">
<path fill-rule="evenodd" clip-rule="evenodd" d="M9.30735 1.69225C5.10833 1.69225 1.69225 5.14104 1.69225 9.37843C1.69225 14.7699 8.03704 20.0227 9.30735 20.3024C10.5777 20.0215 16.9225 14.7688 16.9225 9.37843C16.9225 5.14104 13.5064 1.69225 9.30735 1.69225ZM9.30735 21.9992C7.28343 21.9992 0 15.7356 0 9.37843C0 4.20692 4.17534 0 9.30735 0C14.4394 0 18.6147 4.20692 18.6147 9.37843C18.6147 15.7356 11.3313 21.9992 9.30735 21.9992Z" fill="#929292"/>
</g>
</svg>
