<svg width="42" height="42" viewBox="0 0 42 42" fill="none" xmlns="http://www.w3.org/2000/svg">
<path fill-rule="evenodd" clip-rule="evenodd" d="M39.7259 6.99734C40.5654 7.33483 40.5485 8.51979 39.7029 8.84174C38.5277 9.28924 37.3523 9.73649 36.1763 10.1819C35.9785 10.2566 35.7799 10.3481 35.581 10.4397C35.0998 10.6614 34.6171 10.8838 34.1423 10.8698C33.6768 10.856 33.2332 10.6077 32.789 10.3592C32.5927 10.2493 32.3962 10.1394 32.1978 10.0496C30.3291 9.20475 28.4608 8.35922 26.5928 7.51299C26.5789 7.50671 26.5651 7.50034 26.5514 7.49402C26.4196 7.43315 26.2969 7.37652 26.1337 7.44733C24.8766 7.99358 23.6171 8.53574 22.3316 9.08913L22.3295 9.09001C21.8989 9.27536 21.4654 9.46199 21.028 9.65044L28.9027 12.9405C28.5472 13.0753 28.203 13.2051 27.8664 13.332L27.864 13.3329C27.2386 13.5686 26.6391 13.7946 26.0401 14.0254C24.4692 14.6222 22.8988 15.2211 21.3286 15.8221C21.2437 15.8616 21.1518 15.8838 21.0584 15.8874C20.965 15.891 20.8717 15.8759 20.7841 15.8429C14.5298 13.4621 8.2173 11.2522 2.01 8.75326C1.29236 8.46435 1.30731 7.44989 2.03094 7.17637C8.26346 4.80721 14.496 2.43839 20.7285 0.0699272C20.813 0.0292092 20.9046 0.00576475 20.998 0.000936141C21.0914 -0.00389212 21.1849 0.00999065 21.273 0.0417893C27.4159 2.38177 33.6266 4.54512 39.7259 6.99734ZM23.698 41.523C23.043 41.771 22.3477 41.285 22.3477 40.5847C22.3474 33.2368 22.3448 25.8889 22.3395 18.5411C22.3395 18.1951 22.4424 18.045 22.7615 17.9262C24.1763 17.4052 25.5867 16.869 26.9967 16.333C27.502 16.1409 28.0072 15.9488 28.5126 15.7575C28.5868 15.7297 28.6614 15.7035 28.741 15.6754C28.7961 15.6561 28.8537 15.6358 28.9151 15.6136V22.198C29.0163 22.2593 29.0946 22.217 29.1645 22.1792C29.1849 22.1682 29.2046 22.1576 29.2239 22.15C29.8141 21.9281 30.4044 21.7041 30.995 21.4799C31.9495 21.1177 32.905 20.755 33.8633 20.4003C34.1134 20.3085 34.1834 20.1835 34.1814 19.9219C34.1734 18.5083 34.1741 17.0947 34.1749 15.6811C34.1752 15.099 34.1755 14.5169 34.1752 13.9347C34.1752 13.9197 34.175 13.9048 34.1749 13.8901C34.1731 13.7311 34.1715 13.5961 34.3883 13.5179C36.2995 12.8014 38.2079 12.0766 40.1181 11.3511C40.2933 11.2846 40.4686 11.2181 40.6438 11.1515C41.3029 10.9012 42.0071 11.3926 41.9998 12.0976L41.7668 34.6861C36.5508 36.6569 27.1793 40.2049 23.698 41.523ZM0 12.0572C0 11.3564 0.701451 10.8724 1.35661 11.1212C7.3299 13.3891 13.3041 15.6543 19.2791 17.9168C19.6055 18.0408 19.73 18.1752 19.729 18.5514C19.7165 25.9003 19.7184 33.2491 19.7187 40.5979C19.7187 41.2986 19.0173 41.7826 18.3622 41.5338L0.645793 34.8072C0.257042 34.6596 0 34.2871 0 33.8713V12.0572ZM10.5171 34.6475C9.8263 34.3844 9.14282 34.1269 8.46311 33.8707L8.45856 33.869C7.79379 33.6185 7.13261 33.3694 6.47168 33.1177C6.35852 33.0746 6.23485 33.0391 6.11072 33.0034C5.80236 32.9149 5.49113 32.8255 5.33113 32.6174C5.16574 32.4018 5.19957 32.0792 5.23346 31.7558C5.24873 31.6103 5.26401 31.4644 5.26113 31.3283C5.25358 31.0047 5.25612 30.6811 5.25863 30.3607L5.25866 30.3575C5.2599 30.1991 5.26113 30.0414 5.26113 29.8849C5.32361 29.8241 5.37266 29.8501 5.41785 29.874C5.42335 29.8769 5.4288 29.8798 5.4342 29.8825C5.44072 29.8858 5.44719 29.8887 5.45362 29.8912C7.04984 30.4956 8.64675 31.1001 10.2443 31.7045L10.2531 31.7078C10.4104 31.7676 10.5294 31.8128 10.5254 32.0349C10.5124 32.6702 10.5141 33.3061 10.5159 33.9574C10.5165 34.1854 10.5171 34.4152 10.5171 34.6475Z" fill="#F8842F"/>
</svg>
